<svg id="Calque_1" data-name="Calque 1" xmlns="http://www.w3.org/2000/svg" viewBox="0 0 929.67 900.68"><defs><style>.cls-1{fill:#fefefe;}.cls-2{fill:#020202;}.cls-3{fill:#ccc;}.cls-4{fill:#878787;}.cls-5{fill:#fd191f;}.cls-6{fill:#ecfa71;}</style></defs><path class="cls-1" d="M656.05,660.89h0c2-.13,3.72-.6,3.84-3.06.06-1.26,0-2.59,1.09-3.45,4.4-3.53,5.62-9.11,8.75-13.43,2-2.74,1.83-5.1-.24-7.55-.14-1,.51-1.65.93-2.48,6-11.44,13.9-21.65,19.55-33.31,6.85-14.14,14.43-27.93,21.51-42,5-10,10.71-19.67,16.56-29.2,4.59-7.48,9.36-15,15-21.64,8.12-9.55,16.87-18.5,23.65-29.21,1.79-2.83,4.55-7.95,10.21-4.93.45.24,2-.57,2.33-1.25,2.23-4.22,5.32-4.13,9.14-2.39a4.52,4.52,0,0,0,3.6-.52c2.86-1.78,5.72-1.17,8.62-.49a8.16,8.16,0,0,0,7.47-1.52c2.58-2.28,5.71-2.12,8.65-2.78a7,7,0,0,0,3.72-1.71c2.75-2.77,5.59-3.83,9.47-1.72s6.39.81,7.36-3.68c.41-1.91,1.15-2.43,2.79-3,4.76-1.58,6.8-5.52,5.53-10.48a9.4,9.4,0,0,1,.79-6.92c3.57-7,7.49-13.9,10.58-21.13,4-9.31,9.78-16.5,19.19-20.75,3.38-1.53,7.87-4.32,8.14-7.22.42-4.59,4.55-5.29,5.78-8.45a4.66,4.66,0,0,0,0-1.82c0-.74.28-1.24,1-1.19,5.17.36,5.31-1.66,2.47-5.14a1.11,1.11,0,0,1,.1-1.62c2.61-2.92,1.37-5.49-1-7.57,1.8-1.24,6.35-1.2,4.31-3.24-3.47-3.46-.42-4.92.31-7.32,3.55-11.74,13.56-19.64,18.1-30.83a144.55,144.55,0,0,1,8.83-17.81c2.77-4.8,4.62-10.19,7.88-14.57,6.93-9.31,11.61-19.76,16.79-30a99.32,99.32,0,0,0,9.55-29.94c1.21-8,8.67-15.3,3.32-24.18-.15-.24-.07-.61-.12-.92-1.5-9.14-6.74-13-15.87-13-4.22,0-8.27,1.33-12.42.93-9.05-.87-17.83-.76-25.35,5.41-4.79-2.91-7.34-2.05-9.42,3.38a6.1,6.1,0,0,1-1.41,2.26c-.58.51-1.07,1.24-1.75,1.49-12.2,4.44-23.16,12.12-36.1,14.48-6.43,1.17-12.19,4.92-19,4.63a66.78,66.78,0,0,1,.17-7.39c.21-2.86-.2-5.71.18-8.61.44-3.34,2.28-6.63,1.15-10.09-.84-2.58-.54-5.12-.47-7.74.1-4-.21-8-.44-12-.46-8.4-1.2-16.82.2-25.2a20.53,20.53,0,0,0-.42-6.77c-1-6.21-5.8-10.34-7.71-16.12-2.52-7.6-6-15.22-15-17.6-.7-.19-1.24-.65-1.06-1.27,1.83-6.36-2.34-3-4.61-3-.91,0-2.27.82-2.58-1l0,0c2.72-.8,1-2.72.54-3.68-.65-1.3-1.74-.07-2.7.34-2.81,1.21-5.09,3.77-8.2,3.95-2.4.13-3.42,1.19-3.77,3.18-.54,3-2,2.31-3.91,1.33-3.29-1.64-6.93-3.48-10.51-2.24-7.63,2.64-15.38,4.74-23.18,6.8-4.8,1.26-10.61,2.77-13.19,6.79a44,44,0,0,1-11.19,12c-5.69,4.2-11.2,8.67-17,13.19-3.29-12.27-6.26-24-7.63-36.16-.54-4.75-2.17-9.42-5.74-13-1.41-1.39-3.51-1.89-4.24-4.21-1.83-5.81-6.81-9.52-10-14.41-.67-1-2.37-.92-2.56-1.17-2.18-2.88-8.77.25-8.34-6.15.07-1-1.59-.91-2.36-.63-2.3.83-5,3.47-5.22-1.84,0-.79-1.52-1.64-2.22-.8-3.44,4.1-9.43,5-12.2,10.06-.94-1.28-1.77-2.6-2.79-3.76-4.82-5.46-9.16-11.71-17.65-11.6-.92,0-1.51-.44-1.38-1.4.66-4.8-2.13-3.18-4-1.93-2.28,1.51-2.54.68-3.06-1.47s-1.85-3.93-3.83-.74c-.37.61-1.35.83-1.74,1.43-1.92,3-6.74,3.43-7.57,6.13-1.55,5-5.1,9.94-2,16.08,1.84,3.69.73,8-3.52,10.54-1.88,1.14-3.86,2.21-3.36,5.35.16,1-1.34,3.51-3.37,4-1.16.28-1.52-1.17-1.67-1.79-1.24-5.21-4.14-10-3.75-15.64.13-1.81.44-4.23-1.59-5-3.48-1.31-5.35-4.38-7.34-6.85-3-3.79-6.6-3.56-10.61-4.09-4.79-.63-7.08,4.2-11.35,4.11-1.33-3.16-2.29-3.66-5.51-1-3.92,3.2-5.35,8.12-9.27,11.07-9.73,5-10.54,16.72-17.61,24.25-3.5-7.85-6.76-15.1-10-22.37-4-9.19-13.81-12.38-20.15-19.21-4.28-4.61-9.85-7.27-16.57-5.86-1.2.25-1.75-.5-1.72-1.59.13-3.78-2.34-2.38-3.47-1.35-2,1.82-3.12,2.63-4.36-.57a1.71,1.71,0,0,0-3.05-.49c-2.44,3.3-4.43,6.93-8,9.24-.74.48-.36,1.39-.36,2.16,0,6.85-3.51,11.73-8.73,15.71a2.54,2.54,0,0,1-3.39,0c-4.08-3.26-9.36-4.43-13.12-8.53-2.81-3.07-7.13-4.76-10.77-7.09a2.77,2.77,0,0,0-2.44-.47,12.31,12.31,0,0,1-10.19-2.86c-.94-.78-1.77,0-2.52.34-1.39.69-1.83,2.57-3.85,3-.23-1.53-.52-3.27-2.43-3.64-2.33-.44-2,2-2.92,3-1.32,1.47-1.88,3.8-3.39,4.88-2.89,2-2.24,4.56-2.63,7.43-.44,3.12-1.13,5.58.5,8.68,3.28,6.19,7.58,12.28,5.17,20-.07.26.17.6.21.9,1.59,10.29,3.06,20.6,4.83,30.86.53,3.07.58,6.22,1.8,9.28.5,1.25,1.1,3.58-.14,5.34-2.72,3.83-5.3,7.77-8.76,11.18-1.72-2.2-2.74-4.48-4.65-6.2-3.18-2.84-4.58-7-7.08-10.45-1.23-1.68-2-3.94-3.55-5.69-5.41-6.06-10.88-12.08-16-18.38-5.24-6.46-9.75-13.53-15.25-19.73-3.18-3.59-6.9-6.51-8.05-11.48-.26-1.11-.87-2.62-2.34-2.63-3.52,0-6.14-2.14-8.74-3.87-5.38-3.6-10.12-1.55-15,.83a30.33,30.33,0,0,0-4.14,2c-1.79,1.23-2.89,1.7-3.45-1.1-.52-2.6-2.09-1-3.08-.36-1.37.9-1.49,3-3.3,3.58-1.53-3.39-3.27-4.6-4.14-3.06-2.2,4-3.19,8.56-6.52,11.93-.16.17.19.83.26,1.27.26,1.55,2.11,3.23.27,4.63s-3.49-.45-5-1c-4.42-1.73-12.85-.32-15.07,3.47-4.24,7.24-9.54,13.67-14.39,20.45-2.68,3.74-5.91,8.26-5.22,12.68,1.71,10.85-3.92,19.91-5,30.83-11-10-22.73-17.24-32.21-27.24-3.64-3.83-8.27-7.14-13.68-7a16.21,16.21,0,0,1-7.13-1.75,20.52,20.52,0,0,0-4.4-1.53c-5.52-.91-10.82-3.64-16.74-1-1.95.86-5.2,4.37-7.29-.58-.21-.5-1.47.73-2.1,1.33-1.06,1-.53,3.1-2.33,3.67-3.7-3.67-4.14-3.61-5.35,1.23-.89,3.55-4,7.73-3.14,10.17,1.67,4.61.73,11.06,6.77,13.62a1.07,1.07,0,0,1,.39,1.58c-.26.09-.58.32-.78.25-9.85-3.68-19.65-8.1-29.87-.95-.75.52-1.44-.24-1.82-1-1.78-3.37-2.93-.87-3.76.57-.69,1.17-.84,2.66-1.91,3.66-1.17-1.95-3.39-4.38-4.7-1.61-1.83,3.87-3.38,9.06-2.86,12.66.65,4.55,1.34,10.56,7.08,13.57,3.22,1.69,6.81,4.52,8.09,7.7a150.93,150.93,0,0,0,11.91,24.49c1.14,1.83,3.07,2.29,4.24,4.09,4.21,6.51,5.44,14.1,8.32,21.08a4.24,4.24,0,0,1-.09,2.72c-1.76,5.24-2,10.88-4.27,15.81-6.54-1.67-12.35-5.49-17.23-9.41-5.77-4.63-12.36-7-18.51-10.49-8.69-4.89-17.75-9.13-26.13-14.62-4.32-2.84-9.09-4.87-14.38-4.46-2,.16-3.76,1.38-6,.48-5.63-2.3-11.67-1-17.5-1.6-.91-.1-1.81.81-2.28.86-3.59.37-5.5,7.32-10.39,2.67-.71-.68-1.39.9-1.86,1.59-.94,1.38-.3,3.37-1.89,4.85-.75-1.82-2.21-2.88-4-2.26s-.68,2.4-.78,3.67c-.17,2.15,0,4.34-.42,6.44-.89,5,2.1,11.94,6.31,14.85,5.73,4,12.8,6.67,14.47,14.69.08.37.71.59,1,.94,5.36,6.35,11,12.54,16,19.13,9,12,19.43,22.65,30.35,32.85,5.14,4.8,10.17,14.44,10.52,20.45a1.58,1.58,0,0,0,1.36,1.63c1.9.19,2.28,2,3.3,3,4.28,4.53,6.19,10.54,9.55,15.69,6,9.22,14.46,17.44,13,30.31-.33,2.91-.41,7.37,1.71,10.26a207.62,207.62,0,0,1,14.79,22.42,34.29,34.29,0,0,0,4.43,6.2c6.22,7,12.44,14.08,14.49,23.76.73,3.41,2.18,6.81,6.39,7.81.87.2,1.56,1.44,2.2,2.3,2.91,4,9.19,6.52,13.89,5.26,1.74-.46,3.72-1,5-.22,5.09,2.88,8.63-1,11.42-3.4s5.17-5.29,8.16-7.55a3.41,3.41,0,0,0,1.3-3.7c-.32-1.85-3.39-3.69-1.12-5.3,1.94-1.38,3.46,2.1,5.7,2.19.37,0,.74.48,1.1.76,8.53,6.49,16.63,13.67,27.22,16.86.84.25,2.08,1,2.18,1.61,1.21,8.21,9.05,11.34,13.78,16.4,5.24,5.6,10,11.83,15.85,16.95a14.85,14.85,0,0,1,2.62,3.76c4.52,7.45,9,15,14,22.07s11,14,16.43,21c8.07,10.41,15.08,21.56,22.4,32.49,4.05,6,9,11.39,13.13,17.29,4.67,6.69,9.13,13.57,14,20.15,9.57,13,17.25,27.29,26.77,40.36,5.23,7.19,9.46,15.1,14.44,22.48,8.65,12.79,19.13,24.24,27.15,37.51a88.37,88.37,0,0,0,8.05,11.09c3.74,4.44,7.14,9,10.47,13.71a6.34,6.34,0,0,1,1,6.09c-1.8,3.78-1.22,6,3.58,7.34a12.11,12.11,0,0,1-2.12.69c-8.68.22-10.64,2.68-10.64,11.16,0,3.2-.32,6.61.14,9.64.6,3.94-1.76,7.43-.68,11.2l-.44.42c-1.61,0-2.45.75-1.63,2.3,1.38,2.62,0,5.38-.3,7.69-1,7-1.07,14.17-1.32,21.17-.28,7.85-1.33,16.08,1.7,23.73,1.81,4.55-.63,9,.49,13.75.78,3.29,2.12,6.73,2.25,10.06a177.06,177.06,0,0,0,2.2,19.65c1.26,8.46,4.67-6.5,6.87,1.58,1.43,5.27,4.42,9.82,6.05,14.88,1.2,3.74,5.52,7.23,2,11.92a2.78,2.78,0,0,0,.16,2.66c1.76,1.46,3.07,4.31,6.2,2.67a9.15,9.15,0,0,0,.79,6.8c.08.13.19.34.28.34,5.21-.17,5.81,5.3,9,7.71,3.81,2.87,8.25,5.37,13.14,4.19a4.61,4.61,0,0,1,5,1.64c.43.58.35,1.81,1.26,1.71,4.81-.5,9.87-.42,14.33-2,3.23-1.15,5.91-1.36,8.39.33,1.74,1.18,3.74,1.11,5.17,1.87,3.1,1.65,3.87-2.41,6.66-1.69a17.3,17.3,0,0,0,9.71.05,23.43,23.43,0,0,1,8.27-1.06c2.64.15,7.56.19,8.54-4.63.76-3.67,6-.39,6.58-4.32,4.41,2.27,7.52-.7,11-2.58-.4-1.54-4-1.76-2.32-3,2.76-2,4.82-4.81,7.93-6.51,3.79-2.08,8.49-3.81,8.54-9.42,0-3.78,2.17-7.17,3-10.66,1-4.21,4.07,13.69,7,9.57a33.21,33.21,0,0,0,5.49-11.71c1.16-5.19,2.85-9.67,8.68-11.75,3.56-1.28,5.16-7.58,3.88-11.43-1.59.26-1.92,3.25-4.62,1.58-2.38-1.47-1-3.17-1.18-4.76-.33-3,1.22-5.37,3.18-7.45.38-.41.92-2.21,1.67-.33.67,1.67,1.9,2.23,3.19,1.45,1.58-1,2-2.61,1.1-4.49-1.83-3.9-4.18-7.7-1.56-12.28.71-1.25-.75-2.09-1.74-2.89-1.88-1.52-2.58-3.36-2.73-6-.26-4.75-.14-9.6-1.7-14.28-.7-2.11-3.44-4.14-2-6.31,4.12-6,1.68-12.51,1.94-18.81.19-4.6-2.14-7.3-6.33-8.11-6.22-1.2-5.6-5.73-5.6-10.19,0-7.08,5.43-11.33,8.78-16.57,2.91-4.56,2.14-8.43-3.2-10.69-2.42-1-5.61-2.07-5.91-4.85a19,19,0,0,1,2.13-11.11c7.82-14.37,15.76-28.67,23.48-43.09,7.16-13.38,14.09-26.88,21.12-40.34C655.85,663.71,656.21,662.49,656.05,660.89Z" transform="translate(-33.98 -52.2)"/><path class="cls-2" d="M809.64,103.41c.31,1.77,1.67,1,2.58,1,2.27-.1,6.44-3.41,4.61,3-.18.62.36,1.08,1.06,1.27,9.05,2.38,12.5,10,15,17.6,1.91,5.78,6.75,9.91,7.71,16.12a20.53,20.53,0,0,1,.42,6.77c-1.4,8.38-.66,16.8-.2,25.2.23,4,.54,8,.44,12-.07,2.62-.37,5.16.47,7.74,1.13,3.46-.71,6.75-1.15,10.09-.38,2.9,0,5.75-.18,8.61a66.78,66.78,0,0,0-.17,7.39c6.86.29,12.62-3.46,19-4.63,12.94-2.36,23.9-10,36.1-14.48.68-.25,1.17-1,1.75-1.49,4.45-.27,7.72-2.8,10.83-5.64,7.52-6.17,16.3-6.28,25.35-5.41,4.15.4,8.2-.93,12.42-.93,9.13,0,14.37,3.9,15.87,13,0,.31,0,.68.12.92,5.35,8.88-2.11,16.17-3.32,24.18a99.32,99.32,0,0,1-9.55,29.94c-5.18,10.24-9.86,20.69-16.79,30-3.26,4.38-5.11,9.77-7.88,14.57A144.55,144.55,0,0,0,915.37,318c-4.54,11.19-14.55,19.09-18.1,30.83-.73,2.4-3.78,3.86-.31,7.32,2,2-2.51,2-4.31,3.24,2.35,2.08,3.59,4.65,1,7.57a1.11,1.11,0,0,0-.1,1.62c2.84,3.48,2.7,5.5-2.47,5.14-.74-.05-1.06.45-1,1.19a4.66,4.66,0,0,1,0,1.82c-1.23,3.16-5.36,3.86-5.78,8.45-.27,2.9-4.76,5.69-8.14,7.22-9.41,4.25-15.2,11.44-19.19,20.75-3.09,7.23-7,14.11-10.58,21.13a9.4,9.4,0,0,0-.79,6.92c1.27,5-.77,8.9-5.53,10.48-1.64.54-2.38,1.06-2.79,3-1,4.49-3.48,5.78-7.36,3.68s-6.72-1-9.47,1.72a7,7,0,0,1-3.72,1.71c-2.94.66-6.07.5-8.65,2.78a8.16,8.16,0,0,1-7.47,1.52c-2.9-.68-5.76-1.29-8.62.49a4.52,4.52,0,0,1-3.6.52c-3.82-1.74-6.91-1.83-9.14,2.39-.36.68-1.88,1.49-2.33,1.25-5.66-3-8.42,2.1-10.21,4.93-6.78,10.71-15.53,19.66-23.65,29.21-5.66,6.66-10.43,14.16-15,21.64-5.85,9.53-11.53,19.22-16.56,29.2-7.08,14.05-14.66,27.84-21.51,42-5.65,11.66-13.6,21.87-19.55,33.31-.42.83-1.07,1.47-.93,2.48-1.18,2.3-2.38,4.6-3.53,6.92-3.41,6.81-7.4,13.34-9.91,20.57h0c-1.43.46-2.39,1.26-2.11,2.94-7,13.46-14,27-21.12,40.34-7.72,14.42-15.66,28.72-23.48,43.09a19,19,0,0,0-2.13,11.11c.3,2.78,3.49,3.83,5.91,4.85,5.34,2.26,6.11,6.13,3.2,10.69-3.35,5.24-8.77,9.49-8.78,16.57,0,4.46-.62,9,5.6,10.19,4.19.81,6.52,3.51,6.33,8.11-.26,6.3,2.18,12.77-1.94,18.81-1.48,2.17,1.26,4.2,2,6.31,1.56,4.68,1.44,9.53,1.7,14.28.15,2.65.85,4.49,2.73,6,1,.8,2.45,1.64,1.74,2.89-2.62,4.58-.27,8.38,1.56,12.28.88,1.88.48,3.52-1.1,4.49-1.29.78-2.52.22-3.19-1.45-.75-1.88-1.29-.08-1.67.33-2,2.08-3.51,4.41-3.18,7.45.18,1.59-1.2,3.29,1.18,4.76,2.7,1.67,3-1.32,4.62-1.59,1.28,3.86-.32,10.16-3.88,11.44-5.83,2.08-7.52,6.56-8.68,11.75a33.21,33.21,0,0,1-5.49,11.71c-2.88,4.12-8.94-3.12-10,1.09-.87,3.5,0-3.78,0,0-.05,5.61-4.75,7.34-8.54,9.42-3.11,1.7-5.17,4.49-7.93,6.51-1.68,1.23,1.92,1.45,2.32,3-3.52,1.88-6.63,4.85-11,2.58-.56,3.93-5.82.65-6.58,4.32-1,4.82-5.9,4.78-8.54,4.63a23.43,23.43,0,0,0-8.27,1.06,17.3,17.3,0,0,1-9.71-.05c-2.79-.72-3.56,3.34-6.66,1.69-1.43-.76-3.43-.69-5.17-1.87-2.48-1.69-5.16-1.48-8.39-.33-4.46,1.58-9.52,1.5-14.33,2-.91.1-.83-1.13-1.26-1.71a4.61,4.61,0,0,0-5-1.64c-4.89,1.18-9.33-1.32-13.14-4.19-3.19-2.41-3.79-7.88-9-7.71-.09,0-.2-.21-.28-.34a9.15,9.15,0,0,1-.79-6.8c-3.13,1.64-4.44-1.21-6.2-2.67a2.78,2.78,0,0,1-.16-2.66c3.49-4.69-.83-8.18-2-11.92-1.63-5.06-4.62-9.61-6.05-14.88-2.2-8.08-5.61,6.88-6.87-1.58a177.06,177.06,0,0,1-2.2-19.65c-.13-3.33-1.47-6.77-2.25-10.06-1.12-4.74,1.32-9.2-.49-13.75-3-7.65-2-15.88-1.7-23.73.25-7,.36-14.12,1.32-21.17.32-2.31,1.68-5.07.3-7.69-.82-1.55,0-2.29,1.63-2.3,0,.45,0,.86.61.6.08,0-.11-.66-.17-1-1.08-3.77,1.28-7.26.68-11.2-.46-3-.14-6.44-.14-9.64,0-8.48,2-10.94,10.64-11.16a12.11,12.11,0,0,0,2.12-.69c-4.8-1.31-5.38-3.56-3.58-7.34a6.34,6.34,0,0,0-1-6.09c-3.33-4.72-6.73-9.27-10.47-13.71a88.37,88.37,0,0,1-8.05-11.09c-8-13.27-18.5-24.72-27.15-37.51-5-7.38-9.21-15.29-14.44-22.48-9.52-13.07-17.2-27.33-26.77-40.36-4.84-6.58-9.3-13.46-14-20.15-4.11-5.9-9.08-11.25-13.13-17.29-7.32-10.93-14.33-22.08-22.4-32.49-5.45-7-11.29-13.74-16.43-21s-9.5-14.62-14-22.07a14.85,14.85,0,0,0-2.62-3.76c-5.83-5.12-10.61-11.35-15.85-16.95-4.73-5.06-12.57-8.19-13.78-16.4-.1-.64-1.34-1.36-2.18-1.61-10.59-3.19-18.69-10.37-27.22-16.86-.36-.28-.73-.75-1.1-.76-2.24-.09-3.76-3.57-5.7-2.19-2.27,1.61.8,3.45,1.12,5.3a3.41,3.41,0,0,1-1.3,3.7c-3,2.26-5.42,5.2-8.16,7.55s-6.33,6.28-11.42,3.4c-1.29-.74-3.27-.24-5,.22-4.7,1.26-11-1.28-13.89-5.26-.64-.86-1.33-2.1-2.2-2.3-4.21-1-5.66-4.4-6.39-7.81-2-9.68-8.27-16.77-14.49-23.76a34.29,34.29,0,0,1-4.43-6.2,207.62,207.62,0,0,0-14.79-22.42c-2.12-2.89-2-7.35-1.71-10.26,1.47-12.87-7-21.09-13-30.31-3.36-5.15-5.27-11.16-9.55-15.69-1-1.08-1.4-2.85-3.3-3a1.58,1.58,0,0,1-1.36-1.63c-.35-6-5.38-15.65-10.52-20.45-10.92-10.2-21.31-20.82-30.35-32.85-5-6.59-10.61-12.78-16-19.13-.3-.35-.93-.57-1-.94-1.67-8-8.74-10.72-14.47-14.69-4.21-2.91-7.2-9.9-6.31-14.85.38-2.1.25-4.29.42-6.44.1-1.27-1.07-3,.78-3.67s3.27.44,4,2.26c1.59-1.48,1-3.47,1.89-4.85.47-.69,1.15-2.27,1.86-1.59,4.89,4.65,6.8-2.3,10.39-2.67.47-.05,1.37-1,2.28-.86,5.83.63,11.87-.7,17.5,1.6,2.22.9,4-.32,6-.48,5.29-.41,10.06,1.62,14.38,4.46,8.38,5.49,17.44,9.73,26.13,14.62,6.15,3.46,12.74,5.86,18.51,10.49,4.88,3.92,10.69,7.74,17.23,9.41,2.24-4.93,2.51-10.57,4.27-15.81a4.24,4.24,0,0,0,.09-2.72c-2.88-7-4.11-14.57-8.32-21.08-1.17-1.8-3.1-2.26-4.24-4.09a150.93,150.93,0,0,1-11.91-24.49c-1.28-3.18-4.87-6-8.09-7.7-5.74-3-6.43-9-7.08-13.57-.52-3.6,1-8.79,2.86-12.66,1.31-2.77,3.53-.34,4.69,1.61,1.08-1,1.23-2.49,1.92-3.66.83-1.44,2-3.94,3.76-.57.38.73,1.07,1.49,1.82,1,10.22-7.15,20-2.73,29.87.95.2.07.52-.16.77-.25a1.06,1.06,0,0,0-.38-1.58c-6-2.56-5.1-9-6.77-13.62-.89-2.44,2.25-6.62,3.14-10.17,1.21-4.84,1.65-4.9,5.35-1.23,1.8-.57,1.27-2.65,2.33-3.67.63-.6,1.89-1.83,2.1-1.33,2.09,4.95,5.34,1.44,7.29.58,5.92-2.6,11.22.13,16.74,1a20.52,20.52,0,0,1,4.4,1.53,16.21,16.21,0,0,0,7.13,1.75c5.41-.09,10,3.22,13.68,7,9.48,10,21.18,17.27,32.21,27.24,1.05-10.92,6.68-20,5-30.83-.69-4.42,2.54-8.94,5.22-12.68,4.85-6.78,10.15-13.21,14.39-20.45,2.22-3.79,10.65-5.2,15.07-3.47,1.5.59,3.25,2.36,5,1s0-3.08-.27-4.63c-.07-.44-.42-1.1-.26-1.27,3.33-3.37,4.32-8,6.52-11.93.87-1.54,2.61-.33,4.14,3.07,1.81-.56,1.93-2.69,3.3-3.59,1-.64,2.56-2.24,3.08.36.56,2.8,1.66,2.33,3.45,1.1a30.33,30.33,0,0,1,4.14-2c4.88-2.38,9.62-4.43,15-.83,2.6,1.73,5.22,3.86,8.74,3.87,1.47,0,2.08,1.52,2.34,2.63,1.15,5,4.87,7.89,8.05,11.48,5.5,6.2,10,13.27,15.25,19.73,5.11,6.3,10.58,12.32,16,18.38,1.55,1.75,2.32,4,3.55,5.69,2.5,3.41,3.9,7.61,7.08,10.45,1.91,1.72,2.93,4,4.65,6.2,3.46-3.41,6-7.35,8.76-11.18,1.24-1.76.64-4.09.14-5.34-1.22-3.06-1.27-6.21-1.8-9.28-1.77-10.26-3.24-20.57-4.83-30.86,0-.3-.28-.64-.21-.9,2.41-7.72-1.89-13.81-5.17-20-1.63-3.1-.94-5.56-.5-8.68.39-2.87-.26-5.38,2.63-7.43,1.51-1.08,2.07-3.41,3.39-4.88.92-1,.59-3.45,2.92-3,1.91.37,2.2,2.11,2.43,3.64,2-.44,2.46-2.32,3.85-3,.75-.37,1.58-1.12,2.52-.34A12.31,12.31,0,0,0,426.85,64a2.77,2.77,0,0,1,2.44.47c3.64,2.33,8,4,10.77,7.09,3.76,4.1,9,5.27,13.12,8.53a2.54,2.54,0,0,0,3.39,0c5.22-4,8.74-8.86,8.73-15.71,0-.77-.38-1.68.36-2.16,3.59-2.31,5.58-5.94,8-9.24a1.71,1.71,0,0,1,3.05.49c1.24,3.2,2.38,2.39,4.36.57,1.13-1,3.6-2.43,3.47,1.35,0,1.09.52,1.84,1.72,1.59,6.72-1.41,12.29,1.25,16.57,5.86C509.19,69.65,519,72.84,523,82c3.21,7.27,6.47,14.52,10,22.37,7.07-7.53,7.88-19.25,17.61-24.25,1.82.55,4.46-.36,4.48-1.24.05-3,2.4-2.72,3.91-3.63a20.57,20.57,0,0,0,6.39-5.15c4.27.09,6.56-4.74,11.35-4.11,4,.53,7.59.3,10.61,4.09,2,2.47,3.86,5.54,7.34,6.85,2,.76,1.72,3.18,1.59,5-.39,5.62,2.51,10.43,3.75,15.64.15.62.51,2.07,1.67,1.79,2-.49,3.53-3,3.37-4-.5-3.14,1.48-4.21,3.36-5.35,4.25-2.57,5.36-6.85,3.52-10.54-3.07-6.14.48-11,2-16.08.83-2.7,5.65-3.17,7.57-6.13.39-.6,1.37-.82,1.74-1.43,2-3.19,3.28-1.55,3.83.74s.78,3,3.06,1.47c1.9-1.25,4.69-2.87,4,1.93-.13,1,.46,1.41,1.38,1.4,8.49-.11,12.83,6.14,17.65,11.6,1,1.16,1.85,2.48,2.79,3.76,2.77-5,8.76-6,12.2-10.06.7-.84,2.19,0,2.22.8.2,5.31,2.92,2.67,5.22,1.84.77-.28,2.43-.41,2.36.63-.43,6.4,6.16,3.27,8.34,6.15.19.25,1.89.15,2.56,1.17,3.23,4.89,8.21,8.6,10,14.41.73,2.32,2.83,2.82,4.24,4.21,3.57,3.54,5.2,8.21,5.74,13,1.37,12.14,4.34,23.89,7.63,36.16,5.81-4.52,11.32-9,17-13.19a44,44,0,0,0,11.19-12c2.58-4,8.39-5.53,13.19-6.79,7.8-2.06,15.55-4.16,23.18-6.8,3.58-1.24,7.22.6,10.51,2.24,2,1,3.37,1.67,3.91-1.33.35-2,1.37-3,3.77-3.18,3.11-.18,5.39-2.74,8.2-3.95,1-.41,2-1.64,2.7-.34.48,1,2.18,2.88-.53,3.68.18.37.36.73.53,1.1l.46-.46ZM724.79,315.88c1-.37,2.14-.51,2.54-1.69a.63.63,0,0,0-.75-.83c-1.39.27-2.11,1.09-1.7,2.59-1.3-.32-2.38-.1-2.82,1.31-.06.18.52.79.81.79C724.24,318,724.42,316.85,724.79,315.88Zm-146.2,216c1.45-7.11,3.55-14.08,4.16-21.35a13.51,13.51,0,0,0,1.63-3.33c2.52-14.05,5.19-28.07,7.29-42.18a230,230,0,0,1,5.38-25.89c1.24-4.61,3.29-9.09,3-14-.37-5.42,1.59-10.55,1.61-15.94,0-2.3-.93-4.87-2-5.42-2.18-1.15-2.29,2.16-3.62,3.24-.45.37-.4,1.42-.49,2.17-2.2,17-8.95,32.87-11.84,49.75-2.14,12.49-3.08,25-4.54,37.54-1,8.37-.43,16.75-.95,25.11-1.13,3.34-.39,6.76-.46,10.15-1,4.19-.6,8.46-.51,12.72Zm45.95,55.6.07-.36v.43c-1.24-.3-2.41,0-2.4,1.38,0,3.57-2,6.49-2.8,9.79-2.29,9.64-4.69,19.25-7.07,29a11.21,11.21,0,0,0,2.86-4.79c2.24-7.08,5.49-13.9,4.79-21.64a3.5,3.5,0,0,1,.75-2.56C624.1,595.69,624.33,591.63,624.54,587.52Zm2.16-196.88c-1.34,5,4.78,6.17,4.91,10.45.43-3,1.48-6-1.22-8.31,2.05-3.75,5.9-5,9.29-7.08,1.64-1,6.15-1.84,1.77-5.16-1.93-1.46-1.7-5.66-4.41-5.09-1.9.4-3.83,3.23-5.76,4.18-2.86,1.41-3,4.28-5,6S624.85,389.09,626.7,390.64ZM202.07,456.82l.72-.65c2.8-1.27,5.58-2.59,8.41-3.77,1.59-.66,1-3,2.83-3.37-.5-1.62-2.08-1.95-3.29-2.25-5.2-1.27-10-3.68-15-5.41-3.35-.28-6-3.06-10.49-2.53l7.5,8.75C193,453.58,196.74,456,202.07,456.82ZM741,424.45c2.59.21,5.36-.21,6.8-2.22,1-1.35-1.67-2.92-1.89-4.73a9.25,9.25,0,0,0-.32-1.36c-2.22-7.83-2.69-16-5.32-23.78-.32-.95-.07-2.56-1.43-2.48s-1.12,1.43-1.26,2.57c-.43,3.5-1.41,7-6.12,5.37-4.26-1.47-4.24.25-3.86,3.7.4,3.6-.7,8,4.7,2.64,1.54-1.54,3.65.83,5.61.75a2.43,2.43,0,0,1,.36,1.1c-3.76,2.15-1.11,5.15-.1,6.73,2,3.19,2.2,6.34,2,9.77-1.12.7-2.94-.91-3.71,1.59-.56,1.79-2.67,3-4.62,3.4-3.13.66-2.61,2.25-1.4,4.19,1.39,2.24,1.78,4.58.62,6.86,2.8-.28,2.38-2.84,2.9-4.55C735.46,428.82,736.5,427.17,741,424.45Zm-83.72,108c-1.93,1.26-.71,3.27-1.45,5.34,1.49-1.87,2.56-3.35,2.8-5.25,6.73-10.66,11.25-22.43,16.12-33.93,3.44-8.12,7-16.18,10.41-24.33,3.49-8.43,11-15.07,11.23-25,0-.47.73-.95,1.16-1.39,2.18-2.23,3.1-4.71,1.59-8.14-3.72,5.5-5.52,11.61-8.57,17.1-6.47,11.67-13.77,22.89-18.8,35.36-2.65,6.58-4.87,13.28-7.44,19.84C661.66,518.82,659.51,525.66,657.24,532.49ZM933.79,244.78c1.38-4.11,3-8.16,4.1-12.34,2.26-8.55,4.15-17.19,6.41-25.74.55-2.12-.4-3.62-1.88-3.3-6.19,1.32-12.61,1.76-18.52,4.29-7.65,3.51-15.38,6.84-22.92,10.57-5,2.48-10.66,3.76-14.94,7.66-4.22.66-7.42,2.26-6.79,7.39-11.28,2-22.58,4-33.55,7.44-1,.33-1.2-.25-1.77-.76-3.84-3.47-7.79-.59-11.56.18-2.48.51-.77,3.16-1.15,4.8-.5,2.13-1.39,2.75-3.12,1.25a29.32,29.32,0,0,1-2.68-3.18c.18,3.19-1.58,4.16-3.73,4.29a4.7,4.7,0,0,1-4.92-2.74,75,75,0,0,1-4.83-12,17,17,0,0,0-5-8c-1.29,2.84.21,5.2.11,7.66-.58,15.24-2.22,30.42-1.81,45.72.2,7.42-1,15,2.77,21.86a89.4,89.4,0,0,0,6.28,9c.83,1.13,1.87.56,2.93.14C826,305.52,835,302.64,843.72,299c7.39-3.12,15.18-5.27,22.79-7.89,6.9-2.38,14.5-2.85,21-5.64s12.35-2.86,18.44-.11c4.66,2.1,6-.46,6.86-4.2,4.62-5.51,8.91-11.22,11.85-17.83-2.61,1.52-5.72,1.85-7.69,4.15-5.82,2.67-11.52,5.67-17.5,7.94-12.48,4.76-25.1,9.14-37.67,13.67a94.87,94.87,0,0,1-24.38,5.46c-5.59.47-10.09,1.31-12.83,6.67a2.72,2.72,0,0,1-3.85,1.41c-2.32-1.09-7.21-12.92-5.49-14.59,3.18-3.11,3.38-9.68,10.2-8.44-.57-1.83-.64-3.26-2-4.05-4.07-2.3-4.49-4.08-1.73-7.85,1.36-1.85,3-3.42,3.65-5.8.65-2.55,4-3.08,4.76-2.25,4.06,4.49,7.77,1.52,11.42-.07,15.77-6.88,30.66-15.67,46.68-22,7.62-3,15-6.71,23-8.66l.71.7.21-.62c5.4-.13,10-3.74,15.42-3.73,3.88,1.6,3.87,2.07-.4,6.27,3.6,0,3.54,3,3.64,4.91s-2,3.63-3.91,4.61c-1.44.72-3.46.49-4,2.59-1.49.81-3.15.39-4.87,1.26-3.25,1.65-7,2.76-10.31,4.23-7,3.17-14.39,5.56-21.2,9.25-4.25,2.31-8.8,4.08-13.22,6.09a62.48,62.48,0,0,0,12.23-3.59c7.24-2.74,15.57-3.12,21-9.76a2.33,2.33,0,0,1,2.07-.63c5.88.17,10-3.6,14.28-6.76a13.18,13.18,0,0,0,6.05-.77c1.37-.41,3.54-1,3.33,1.89a11.87,11.87,0,0,1-4.81,4.5C932,249.9,933.34,247.87,933.79,244.78Zm-254,182.82c.06-1.18-.38-2.56-1.4-2.62-1.41-.07-2.44,1-3,2.53A160.36,160.36,0,0,1,665,451.14a235.78,235.78,0,0,0-17.76,43.14c-3.57,11.63-6.93,23.32-9.49,35.19-1.31,6.06-3.71,11.95-3.54,18.33.21-4.09,2.29-7.63,3.26-11.53a362,362,0,0,1,13.36-41.67c1.63-4.25,3.61-8.4,5.54-12.52,2.22-4.74,4.52-9.5,7-14.15,3.81-7.12,9.39-13.42,11.14-21.62a6.39,6.39,0,0,1,1.21-1.91c2.32-3.54,5.13-6.82,5.74-11.23C683.14,430.62,679.8,429.62,679.75,427.6ZM448.27,520.09c.5,2.38.82,4.84,3.49,7.77-.67-3.42-.74-5.62-1.93-7.6-2-15.61-6.78-30.58-10.7-45.74a228.78,228.78,0,0,1-5.48-25.87c-.63-4.59-.31-9.61-2.9-13.5-2.89-4.31-2-9.53-4.75-14-2.23-3.62-3.68-8.22-4.91-12.6-.24-.85-.94-1.94-1.91-1.74-1.36.29-1.27,1.6-1,2.68.92,3.49,2.1,6.92,2.82,10.45,2.77,13.42,3.66,27.12,7,40.53C431.8,476,437.26,491,442.56,506,444.24,510.79,447.18,515.07,448.27,520.09ZM259.91,405.93c3.21-.8,4.84-4.47,3.2-7.08-3.65-5.82-10.44-6.91-15.61-10.45-4.65-2.55-7.92-6.87-12.57-9.66-2.12-1.28-3.78-2.49-6.29-2.63A131.36,131.36,0,0,1,194.2,370a176,176,0,0,1-24.8-9.83,15.8,15.8,0,0,0-4-.88c6.46,5.39,12.54,10.8,20,14.29a97.5,97.5,0,0,1,12.5,7.09c10.18,6.75,20.22,13.7,32.36,16.68,7.05,1.74,14.17,3.22,20.49,7.24,2.4,1.52,5.47,2,8.27,2.86C259.89,407.74,260,407.57,259.91,405.93Zm22.88,55.81a73.6,73.6,0,0,1,2.06-11.36c.36-1.24,2.28-3.92-1.54-4.3-10.56-1.05-20.33-5.33-30.09-8.84-10.79-3.89-21.15-9.23-32.12-12.66-15-4.69-28.86-12-43-18.53-5.56-2.55-10.34-6.79-15.53-10.19-1.44-.94-3.43-1.63-3.24-3.57.23-2.29,1.11-4.59,3.43-5.75,1-.48,2.13-.55,3.09-1,1.18-.57,1.78-2,.36-2.41-4.26-1.21-6.63-5.25-10.73-6.7-.71,4,3.54,6.91,2.49,11.08-1.89,7.43,1.56,13.23,6.11,18.61,2.68,3.62,2.87,9.15,8.22,10.71,4.06,1.43,8.47-.2,12.4,1,8.09,2.55,15.78,6.2,23.87,8.85,3.77,1.23,8,1.25,11.36,3.24,13.37,7.83,25.24,18.08,39.05,25.14,6.63,3.4,13.19,7.49,20.89,8.49.52,2.37,2.34,2.65,4.3,2.64a11.76,11.76,0,0,1,6.69,1.65C289.09,464.6,286.7,462.21,282.79,461.74Zm219.73-51c1.91,12.43,1.82,25,2.72,37.54.55,7.65,1,15.28,2,22.91,1.48,11.54,3.68,23,3.64,34.76,0,5.47-.34,11.19.67,16.51,2.59,13.77,2.79,27.77,4.86,41.57,1.32,8.8,1,17.84,3.46,27.34.43-10.14,1.25-19.4,1.06-28.64-.16-8.09,1.08-16.17.25-24.21-1.14-10.86-.28-21.68-.08-32.53.21-11.6.62-23.24-.06-34.8-.53-8.89-.68-17.76-.9-26.64s3.48-18.09-.24-27.11c-.23-.57.33-1.46.49-2.21.24-1.14,1.16-2.48-.36-3.3-1.68-.9-2.3.55-3.29,1.58-2.82,2.94-5.84,3.72-9.22.54-1.44-1.35-3.37-2.17-5.07-3.22a1.82,1.82,0,0,0-.18-.37s-.18,0-.28,0ZM405.58,190.23c.79,5.05-2.31,6.93-8.56,5.18-.1-.27.06-1-.58-.33l.66.25c.06,1.51-.42,3.12,1,4.34,2.91,2.5,3,6,3.18,9.42a30.23,30.23,0,0,0,5.6,15.85c4.07,6,8.89,11.42,13.39,17.09,2,2.52,10.25,4.61,13.17,3.21,3.34-1.6,4.82-.86,4.35,3.37.28-4.64,5.37-6.73,4.58-12.07-.32-2.2,2.1-7.49,5-7.62s3.2-1.36,4.07-3a228.82,228.82,0,0,1,15.48-24.21c3.92-5.51,8.54-10.95,7.73-19.82-3.68,8.56-9.2,14.59-13.22,21.61a78.09,78.09,0,0,1-15.89,19.22c-4.2,3.77-6.94,7.22-5.86,13.07.42,2.28-.92,3.63-3.53,3.56-5.61-.16-7.51-5.88-11.94-7.76,1.47-3.89-2.82-8.39,1.3-12.05.49-.43,1.71-1.42.54-2.15-.82-.52-1.52-1.49-2.84-1.28-5.11.83-6.59-.4-6.32-5.52a15.36,15.36,0,0,0-.73-6.36c-1-2.66,1.54-5.18,2.65-4.78,5.13,1.86,6.26-2.65,7.71-5a156.89,156.89,0,0,0,10.43-20,285.56,285.56,0,0,1,20.81-39.17c1.16-1.82.7-4.42,2.94-5.64,5.13-2.82,6.7-7.75,7.09-13,.33-4.42,2.79-10.06-4.58-11.6a1.2,1.2,0,0,1-.65-.61c-1.71-3.55-2.63-1.71-3.73.45-5.94,11.71-12,23.37-17.89,35.09-1.2,2.36-3.72,4.7-.31,7.5,1.23,1-.18,2.45-1,3.15-3.06,2.54-4.45,5.89-5.63,9.55a103,103,0,0,1-5.61,13.3c-3.18,6.53-4.83,13.74-8.72,20q0-7.11-.11-14.23c0-1.51-.53-3-2.08-3.24-1.36-.25-3.92-.29-3.92.85,0,2.39-2.12,2.25-3,3.45-1.62,2.16-3.88,3.88-.34,6.29a2.66,2.66,0,0,1,1.08,3.63l-5.21-.46c-.42-.47-1.19-.85-1.44-.37C404.22,190.13,405.16,190,405.58,190.23Zm361.27-60.36c-2.67-1-4.07,1.18-5.56,2.52-5.4,4.89-11.07,9.44-16.85,13.88-6.48,5-12.71,10.25-19.07,15.36-.66.53-1.24,1-.91,1.89,2,5.36-2.31,6.08-5.53,6.85-4.47,1.08-7.42,4.11-9.47,7.52-3,5-6.07,9.42-11.68,11.79-2,.86-3,4.25-6.16,2.41-.1-.06-.84.52-.83.78.41,6.24-8.12,3-8.66,8.21-1.2-3.35-5.71.22-6.77-3.19-.63-2-2.36-1.28-3.43-1.86-3-1.62-6.67,1.56-9.09-2.16.07,2.26.06,4.12.21,6,.81,10-2.37,20.12,1.19,30.1,2.3,6.47,2.23,13.74,7.4,19.25,1.93,2.05,4.42,3.31,6.16,5.58,2.39,3.1,4.67,2.16,7.56-.09,4.88-3.8,10.53-6.6,15.42-10.39,9-6.94,18.52-12.92,28.12-18.89,7.7-4.78,16.54-7.69,23.11-14.37,2-2,3.37-3.85,2.47-7.22-1.65,2.56-4.43,2.87-6.59,4.35-10.28,7-20.63,14-31.1,20.69a71.27,71.27,0,0,1-17.92,8.5c-4.9,1.48-9.2,4.05-10.45,8.88-.79,3.07-2.46,3.82-5,2.13-1.71-1.15-3.61-2-3.89-4.8-.35-3.63-5.5-6.39-2-10.84-2.74-2.08-.21-2.77,1-3.76s2.22-1.71,3.32-2.58c.67-.53,2-.87,1.43-2-.5-1-.78-2.4-2.56-2.24-5.4.49-4.09-3.46-3.54-6.15s2.4-5.19,2.72-8.25a3,3,0,0,1,4.55-2.31c3.53,2.34,6.29.19,8.38-1.48C706,193.41,719,182.53,732,171.73a162.2,162.2,0,0,1,17.61-12.86c5.41-3.36,11.72-5.52,16.81-9.71,2.42-.26,4.66-1.18,7.3-.63s7.91-4.8,8.2-7.73c.49-5-.8-10-.14-15.11.28-2.09-1.52-2.83-3.11-2.07C774.66,125.54,770.37,127,766.85,129.87Zm-.06,237.51c-1.1.24-.06.6,0,.9.73,4.42,1.68,8.81,2.1,13.26.22,2.29,1.41,5.6-1.44,6.73-2.43,1-2.9-2.56-4.79-4.32.16,3.83-6.06,5.3-2,10.06,2.63-4.35,7.83-3.51,11.55-5.89a99.64,99.64,0,0,1,14.55-7.93c15.82-6.75,31.06-14.83,47.34-20.5,6.23-2.17,12-5.85,18.6-6.62a186,186,0,0,1,19-.91c2.17,0,3.71-.71,4.55-2.56,3.38-7.46,7.6-14.54,10.37-22.16a5.36,5.36,0,0,0-4.85,0c-10.51,5.33-22.85,3.68-33.42,9.5-8.09,4.45-17.35,6.72-26,10.2-5.23,2.11-10.14,5.1-15.46,6.91-5.75,1.95-11.7,3-17.4,5.59s-9.63-.43-8.21-5.71c1-3.59-1.56-7.73,1.91-10.79.56-.49-.18-1.41-.59-2.08-4.36-7.25-7-15.24-10-23.08-1-2.55-1-5.45-1.71-8.13-.28-1.1-.76-2.55-2.57-1.83-1,.38-2.69.54-1.89,1.94,2,3.44-.46,5.55-2,7.86A17.65,17.65,0,0,0,761,328.19a100.31,100.31,0,0,0,2.46,22.57C764.73,356.24,768,361.39,766.79,367.38ZM563.5,855.3c2.31.9,4.64,1.53,7.07.37l2.19.08c2.24,3.76,6,.69,8.74,1.89,1,.43,2.73-1.07,3.06.92.85,5.17,4.61-.42,6.22,1.75,1.75-1.65.45-2.9-.54-4.2-2.25-6.3-3.37-13.16-1.07-19.18,1.76-4.61-.65-6.62-2.14-9.68s-4-.23-5.62-1.37c-4.61-3.18-9.95-2.37-15.06-2.93-3.58-.4-7.13.13-10.82-.92-3.08-.87-6.87-1.64-9.83-1.25-4.78.64-8.88-1-13.26-1.64-3.79-.51-7.29-2.09-11.34-2-7.42.12-14.87-.52-22.28-1.1-1.93-.16-3-.33-2.77,2.07.42,4.06-2.06,4.87-5.15,3.85-4-1.34-8-.36-12-.58-3.47-.19-4.09,1.7-3.87,4.19.58,6.82,3.7,13.39,2.08,20.44-.67,4.26-.59,7.1,5.43,7.13,5.24,0,10.24.47,15-2.25,3.12.16,7.07-2.88,8.95,2.34.11.3,1.42.2,2.17.23,7.15.3,14.39.12,21.43.72A309.48,309.48,0,0,0,563.5,855.3Zm-110-450.7q5.64,4.32,11.27,8.64c1.54,1.18,1.89,3.33.36,3.84-3.16,1.05-4.55,3.77-6.87,5.47a5,5,0,0,1-6.29,0c-1.85-1.55-4.34-2.35-6.82-3.62,3.62,7.69,4.67,15.57,6,23.2a313.21,313.21,0,0,0,7.39,34.25c2.69,9.36,5.08,18.77,7.25,28.24,2.82,12.25,4.8,24.66,7.86,36.9C478,559.19,481.88,577,485,595.05c1.71,10,4,19.94,5.4,30,1.34,9.62,5.24,18.3,8.35,27.22,2.92,8.36,6.76,16.4,9.46,24.93s6.39,16.44,9.71,24.78A6.84,6.84,0,0,0,519,697.7c.2-13.85-3.78-27.09-5.85-40.61-1.36-8.85-3.49-17.58-5-26.42-1.36-8.12-2.59-16.26-4.36-24.31q-2.37-10.79-3.92-21.72c-.83-5.93-.6-12-1.61-17.92-2.92-17-6.37-34-9.32-51-1.57-9.05-2.53-18.36-4.42-27.19-2.15-10-1.44-20-2.71-29.87-1-7.47.26-15,.41-22.53.15-7.72,1.48-15.7-1.23-23.34-.24-.69.58-1.12.63-1.45.33-2.53,1.53-5.22-1.58-7.17-2.64-1.66-4.15-4.91-7.69-5.43-.89-.13-1.93-1.26-1.36-2.09,2.47-3.63-1.66-5.83-1.36-8.46-4.39,2.38-7.24,6.3-10.06,10.2-1.56,2.14-2.06,5.23-5.48,5.48-.36-.73-1.06-1.51-1.68-.8C451.7,404,452.93,404.22,453.5,404.6Zm179.84,2.75c1.46,2.52,2.87,5.07,4.41,7.53,1.32,2.11,2.84,4.46,2.25,6.76-.68,2.69-3.33,1.22-5.2,1.17a1.54,1.54,0,0,0-.46.11c-7.41,2.58-7.37,2.55-12.34-3.31-.72-.84-.91-2.37-2.38-2.47-.29,10.88-3.44,21.21-5.89,31.57a262.07,262.07,0,0,0-5.09,26c-1.26,9.52-2.95,18.93-4.76,28.33s-4.34,18.54-6.27,27.86c-1,4.83-.93,9.91-2.12,14.68-4.06,16.2-6.36,32.75-10.64,48.91-2.28,8.6-4.3,17.32-6.23,26-2.79,12.66-6.68,25.07-7.71,38.14-.62,7.83-.57,15.68-1.36,23.49q-1.83,18.27-2,36.63c0,.82-.64,2,.69,2.35,1.81.44,1.38-1.22,1.69-2.09,4.06-11.73,7.93-23.5,10.59-35.66,2.53-11.6,5.65-23.07,8.48-34.6,2.78-11.36,5.88-22.66,8.14-34.12,1.45-7.37,3.09-14.79,4.86-22,2.67-10.84,7.45-21.14,9.75-32.22,2.46-11.89,5.48-23.66,8.38-35.46,3.05-12.43,6.1-24.87,9.48-37.22,1.36-5,3.76-9.64,5.42-14.54,2.88-8.51,7-16.47,10.52-24.69,2-4.79,5.77-8.74,6.51-14.26.41-3.08,1.88-7.47,3.26-8.81,4.1-4,2.88-7.1.86-10.9-.9-1.7-.85-3.89-3.11-4.86-.7-.3-2.07-2-1-2.68,3.66-2.46,1.14-6.2,2.6-9-5.34.94-9.83,3.29-14.11,6-2,1.3-3.7,3.28-6.49,2.66-.08-.95-.76-2.2-1.41-1.76C631.34,405.81,632.81,406.59,633.34,407.35ZM618,661.2A18.25,18.25,0,0,0,612.62,674c-.07,1.72.5,4.37-1.52,4.85-3.8.91-4.44,4-5.68,6.72-1,2.24-1.45,4.8-2.72,6.86-9.37,15.11-14.53,31.69-17.64,49.33,1.59-.34,3.09-2.3,4.21-1,3.09,3.65,3.25.06,3.92-1.5,3.94-9.07,8.25-18.06,13.66-26.21,7.3-11,11.71-23.35,18.53-34.48,4.62-7.55,7.83-15.8,12-23.54,3.8-7,7.48-14.06,11.14-21.12,3.25-6.27,5.68-13.17,9.52-18.87,9.81-14.52,17.61-30,25.56-45.54,5.39-10.51,10.16-21.44,16.25-31.45,5-8.12,9-16.75,14.58-24.65,7.63-10.82,15.39-21.53,24.14-31.36,4.84-5.43,7.59-12.23,13.31-17.11,4-3.42,1.63-8.9-.28-13.18-1.07-2.41-2.25-4.22,1.13-5.38,2.87-1,.74-3.25,1.08-4.85.11-.5-1.46-2.35-3.66-1.74-3.51,1-7.17,1.42-10.56,2.83-2.92,1.22-5.79,2.5-7.73-1.86a92.1,92.1,0,0,0,3.19,11.56c2.1,6.06,1.37,7.17-4.64,6.7a3.51,3.51,0,0,0-.89.14c-7.46,1.2-7.46,1.2-10.62-5.63-.56-1.23-1.18-2.43-1.88-3.85-3.34,10.31-8.7,19.32-13.3,28.69-4,8.23-8.36,16.4-11.57,25s-7.05,17.13-10.93,25.5c-5.48,11.83-11.74,23.26-17,35.27C656.58,582,648.05,599.52,639,616.75c-4.08,7.74-8.64,15.23-11.9,23.38-1.07,1.66-2.55,3.18-3.14,5C622.15,650.56,617.88,655.08,618,661.2ZM293.45,486.47c7.89,8.31,13.18,17.53,18.94,26.36a235.66,235.66,0,0,0,15.67,21.9c5.93,7.16,11.35,14.67,16.8,22.15,5.68,7.8,10.57,16.17,16.06,24.11,2.91,4.2,6.74,7.78,9.47,12.08,9,14.12,19.58,27.12,28.16,41.52,4.49,7.55,9.5,14.79,14.41,22.07,7,10.38,13.09,21.36,21.25,31A143.8,143.8,0,0,1,448.55,707c7.09,12,16.87,21.91,24.26,33.63,1.6,2.55,5,1.66,7.26.73,1.78-.74.29-3.09-.1-4.46a46,46,0,0,0-3.75-9.72c-5.53-10.1-10.47-20.51-17.2-30-6.51-9.15-11.92-19.08-18.34-28.29-7.57-10.86-13.95-22.46-21.74-33.19-3.59-4.94-7.18-10-10.27-15.27-5.46-9.26-9.7-19.2-15.92-28.14-9-12.89-17.12-26.35-25.7-39.51-6.08-9.32-12.07-18.68-17.32-28.5-1.63-3-2.62-6.47-4.41-9.42-6-9.86-9.22-20.89-13-31.59-2.32-6.55-7.08-12-7.94-19.27a6.07,6.07,0,0,0-6.16-5.1c-2.38.06-4.55-2.35-7.41-1.42-1.08.34-2.55-.69-2.29-1.75,1.11-4.5-3.67-4.58-4.93-7.27-.19.95.24,2.25-.09,2.49-4,2.84-3.42,7.55-4.55,11.43-.92,3.16-.14,6.95-5.34,7.25a97,97,0,0,0,11,2.67c6.37,1.16,7,2.35,3.83,7.63-.14.24-.1.59-.2.87-2.29,6.52-2.95,7-9.6,6.29C297.08,486.92,295.55,486.72,293.45,486.47ZM541,714a10.9,10.9,0,0,0,2.42-7.76c-.21-6.55,1.79-12.79,3.08-19,3-14.86,6-29.65,6.53-44.88.38-11.84,1.42-23.67,1.47-35.52,0-7.36,0-14.85.53-22.08.75-11.18,3.19-22.27,3.44-33.59.27-12,1.14-24,1.36-36,.23-13,1.52-25.94,2.2-38.91.34-6.4,2.38-12.56,3.15-18.94a121.9,121.9,0,0,1,4.4-19.91c2.56-8.67,5.45-17.22,5.44-26.41,0-.43,0-1,.23-1.27,3.3-3.07,2.33-6-.21-8.91-1.65-1.92-2.43-4.61-5.18-5.6-.78-.29-1.86-1.54-1.17-2.22,3.08-3.06-.16-6.28.92-9.39-1.68,0-1,1.5-1.51,1.56-5.87.68-9,5.24-12.73,8.93-2.14,2.15-4,2.61-6.07,0-.5,1.88.6,2.46,1.2,3.33,2.46,3.51,6.07,6,8.31,9.76.94,1.57,1.55,3.62-.08,3.85-3.48.48-5.56,3.25-8.49,4.18-1.8.56-4.38.76-6.08-1.82a7.89,7.89,0,0,0-5-3.42c1.11,10.08.44,20.07,0,30-.44,9.27-.59,18.55-.23,27.76.49,12.62,1.37,25.15.37,37.82-.4,5.14-1.32,10.54-.68,15.54,1.57,12.08.66,24.14.74,36.19.07,10.82-.23,21.67-.77,32.51-.46,9.16-.95,18.34-1.19,27.51-.24,9.71-1.31,19.38-.81,29.12.53,10.35,1.77,20.8.87,31C536.3,689.6,540,700.94,541,714ZM367.72,434.18c4.68,10.52,9.22,20.7,13,31.21a129.82,129.82,0,0,0,9.73,21.28c5.08,8.73,9,18,13.13,27.12,3.77,8.35,6.76,17.06,10.39,25.48,1.95,4.54,5,8.64,6.74,13.23,6,15.61,13.6,30.49,19.44,46.16,3.06,8.2,6.34,16.37,9.71,24.47,4.8,11.55,8.68,23.45,14.65,34.53a241,241,0,0,1,11.39,24.77,203,203,0,0,0,11.52,23.91c.49.89.52,2.51,2,1.93,1.68-.64.7-2.19.43-3.24-.74-2.82-2.12-5.53-2.51-8.38-1.86-13.52-6.33-26.4-9.27-39.65-2.11-9.53-4.32-18.93-8.23-28-3.45-8-6.49-16.18-9.51-24.32-2.56-6.91-6.22-13.37-8.18-20.5-1.55-5.63-2.8-11.39-4.9-16.81C440.1,548.86,433,530.26,425.05,512c-3.49-8-5.48-16.42-9.11-24.4-3.91-8.62-5-18.53-7.27-27.89-2.62-10.72-2.38-22-6.05-32.58-.81-2.35-2.49-5.55-2.06-7.42,1.27-5.5-1.51-7.57-5.54-9.54-1.74-.84-3-2.47-5.35-2.09-.92.16-2.69-.67-2.27-1.79,1.59-4.16-2.64-5.62-3.45-8.63-.26.79-.06,2-.36,2.13-5,2.35-5.53,7.52-7.42,11.73-1.24,2.78-1.85,5.68-6.2,4.56,5,2.81,9.7,5.17,14.44,7.5,1.75.87,2.57,2.72,1.11,3.66-2.72,1.74-3.78,4.47-5.6,6.73a4.74,4.74,0,0,1-6.14,1.27A9.5,9.5,0,0,0,367.72,434.18Zm113,450.5c.72,2.08,1.69,3.79,1.87,5.57,1,9.83,4.34-3.7,8.22,5.27,2.33,5.35,4.08,11,7.19,16,1.39,2.24,2.94,6,4.66,6.1,4,.33,8,1.23,12.12,1.21,5.14,0,10.4,0,15.39,1a34.26,34.26,0,0,0,8.22,1.08c7.32-.18,12.54-4.89,18.59-7.32s9.51-9.38,12.43-15.61c.8-1.71-.17,18.69,2,17.29,2.79-1.79,4.39-4.59,5.65-7.7,1.88-4.64,5.27-8.52,6.48-13.59.46-1.93,2.68-4.39,1.45-5.68s-4.41-2-6.53-1.7c-7.1,1.1-14.25,0-21.19-.32-9.8-.43-19.7-1-29.5-1.2-9.19-.19-18.41.1-27.61-.52-1.89-.13-4.07,1.24-5.43-1.46-.43-.83-.24.34-.4.52-.92,1-2.56,1.7-3.28,1.16C487.54,882.05,484.36,884.8,480.74,884.68ZM167.23,290.12c2.46,1.06,3.41,2.69,2.36,5.22a4.81,4.81,0,0,1-5.49,3.31c-4.16-.5-8.34-.62-12.45-1.7-2.89-.77-6-.63-10.24.59,6.58,2.52,11.21,6.11,16.2,9.11,10.06,6,19.54,13,30.07,18.32,6.75,3.41,12.67,8.66,20.73,8.71,3.25,0,6.49-.85,9.75-1,2-.1,2.58-.92,2.78-2.81,1.09-10.35,4-20.48,3.71-31a27.74,27.74,0,0,1,1.55-10.77c.61-1.61,2.43-4.4-.32-6.8-.51,2-.85,3.67-1.37,5.28-2.09,6.46-3.69,13.16-6.56,19.26-2.16,4.6-3.08,9.14-.43,13.64,1.4,2.37.66,4.11-1.89,5.09-5.22,2-9.13-2.76-14-2.74-.43-3.88-5.2-6.38-3.44-11,.33-.87.76-2.23-.87-2.67-1.08-.29-2.15-.6-2.9.62-1.5,2.44-3,1.76-5,.33-3.92-2.86-3.49-8.07-6.48-11.44-.38-.44.18-3.1,1.74-3.35,4.41-.72,4.57-4.61,4.9-7.36.94-7.89.8-15.9,1.61-23.81,1.25-12.12.77-24.41,3.54-36.39a42.27,42.27,0,0,0,.74-7.89,2.2,2.2,0,0,0-1.73-2.44c-1.12-.15-1.55,1-1.82,1.82-1.93,5.68-3.11,11.41-.56,17.27,1,2.36.46,3.56-2.39,3.8-1.31.11-3.4-1.11-4.09,1.69-.89,3.56-2.95,6.74-3.79,10.39-1,4.35-2,8.82-3.8,12.84-1.31,2.88-.79,7.64-2.66,8.39-4.49,1.78-4,5.67-5.67,8.67-1.19,2.18-.64,3.35,1.63,4.2,1.21.46,2.87,1.24,2.39,2.9s-2.06,1.67-3.53,1.63C168.77,290,168,290.09,167.23,290.12Zm424.88-79.43c-4.74,2.85-8.31,5.94-12.69,8-3,1.45-6.3,4.9-5.89,9.66.22,2.49-1.2,3.57-3.78,3.2-5.46-.77-5.72-6.9-9.71-9.32-2-1.19,1-3.45.71-4.13-2-4.55,1.29-6.5,3.55-9.3.94-1.16-.86-2.68-2.4-2.83-5.16-.49-6.27-1.83-4.91-6.77a22.23,22.23,0,0,0,.74-6.3c0-2.72,1.24-5.11,4.75-3.52a2.7,2.7,0,0,0,3-.28,26.12,26.12,0,0,0,6.85-6.13c3.4-4.41,7.59-8.23,10.17-13.22,1.26-2.46,1.84-7.16-1.2-6.81-4.69.52-10.71-4.88-14.31,2.25-.32.64-1.05.55-1.66.34-4.64-1.58-6.76,2.59-9.95,4.33-1.08.58-1.34,1.47-.7,2.26,1.86,2.3,1.11,4.82,1.05,7.37-.14,5.59-5.26,9.07-10.27,6.74-1.4-.65-2.61-1.66-4-2.37-2.3-1.18-4.25,0-6.06,1.21-2,1.35-.78,2.92-.15,4.5,2.26,5.74,3.8,11.87,6.8,17.19,5.26,9.33,6.94,20.73,16,27.92,2,1.61,5,1.57,6.53,3.15,3.56,3.6,5.25,1.81,7.87-1.15,4.1-4.63,9-8.57,13.23-13.07C588.87,220.23,592.58,216.86,592.11,210.69Zm63,135.34a9.31,9.31,0,0,0,2.34-1.33c7.31-8.51,16.87-14.3,25.31-21.43,5.76-4.87,13.67-8.62,14.29-18.1.12-1.78-.18-1.94-1.19-2.78-.83-.71-3.25-.78-2-2.88.87-1.42,2.42-2.48,3.93-1.43,3.5,2.45,4.34-.38,5.37-2.54a49.83,49.83,0,0,0,1.95-5.71c.27-.8,1.45-1.56.52-2.44s-1.93-.24-2.87.47c-4.26,3.27-8.38,6.79-12.94,9.58-2.87,1.76-3.59,5.58-7.6,6.31-4.81.88-8.87,3.66-12.39,7.25-4.07,4.16-8.35,4.32-10,.22a40.51,40.51,0,0,1-2.41-11.94c-.1-1.33,1.41-3-.65-3.78-2.3-.89-2.63,1.47-3.6,2.71-3.67,4.75-2.57,10.36-2.68,15.68-.15,7-1.88,14.16,1.38,20.84C653.6,338.23,655.17,341.67,655.09,346ZM289.2,201.46c2.12,1.81,5.6,2.4,5.16,5.14-.53,3.22-.12,6.4-.58,9.58-1.2,8.33-3,16.67-1.08,25.11.43,1.91.72,4.62-.14,5.37-4.63,4,.33,4.79,1.95,6.69.4.47.79,1,1.2,1.44,3.53,4.11,8.08,7.29,12.44,10.08,3.91,2.5,9.61,1.87,14.56,2.42,3.89.42,3.91-2.37,3.68-4.33s-.05-5.3-4.19-4.26c-5.32,1.34-8.13-4.49-12.9-4.95.33-4-4.33-7.41-1.57-11.83.5-.8,1.27-2-.21-2.81a2.67,2.67,0,0,0-3-.2c-3.24,1.7-5.63.51-6.47-3.12-.62-2.7-.73-5.44-2.3-7.94-1.28-2.06.3-4.83,1.93-4.74,4.89.27,5.43-3.83,6.32-6.35,2.56-7.24,4.11-14.83,6.27-22.21,1.66-5.7,3.91-11.09-3.95-14.46-2-.85-2.37-1.8-3.51.48-1.79,3.57-3.39,7.38-5.9,10.41C294.24,194.26,294.6,199.64,289.2,201.46Zm55.26,248.79c20.79,43.2,44.7,84.87,66.22,127.81a7.31,7.31,0,0,0-.57-3.73c-3.34-9.84-9.08-18.56-12.95-28.16-3.25-8-6.34-16.17-10-24-4.3-9.21-8.5-18.46-13.13-27.53-6.14-12-12.06-24.29-15.52-37.52-.52-2-1.62-4.9-3.66-5C351.13,451.86,347.72,450.24,344.46,450.25Zm110.28-159c-1,.67.38,1.73-.16,2-3.87,2.14-4.49,6.22-6.25,9.7-2.6,5.12-5.07,6.18-8.4,3.58-3.64-2.84-5.94-7-7.43-11.4a4,4,0,0,0-5-2.74c-2,.57,0,2.29.44,3.37,3.9,10,7.84,20,11.95,30,.66,1.6,1.94,3.53,3.4,4.09,3.89,1.5,5.55,4.53,6.83,9,3.48-6.5,4.62-12.93,7-18.9,2.13-5.38,4.55-10.85,3.53-16.93C459.83,298.51,460,293.51,454.74,291.24Zm102.47,33.11c-2.22-6.08-.76-10.39,2.55-14.53,1.79-2.23,1.19-6.78-.16-9.25-2.83-5.19-5.89-10.29-6.06-16.49,0-.53-1-1.08-1.53-1.57-3.59-3.08-7.54-5.83-10.68-9.32-2.82-3.11-4-1.83-4.75,1-4.61,16.35-8.13,12,3.48,26.48,3,3.8,7.17,6.65,8.83,12.08A24.73,24.73,0,0,0,557.21,324.35ZM321.06,311.73c1.47,5.49,1.19,11.06,1.47,16.56.2,3.94,1.33,6.77,5.71,7.79,2.33.55,4.86,1.34,6.58,3.3,2.83,3.21,6.67,5,10,7.47,1.32,1,1.89.29,2.4-.81a8.07,8.07,0,0,0,.46-5.49,51,51,0,0,1-1.86-10.68c-.15-2.31-.79-6.14-5.33-5.72-2.69.25-3.92-2.46-5.78-4C330.68,316.78,328.51,310.24,321.06,311.73ZM831.38,422.16c-3.32,1.83-5.77,3.13-8.17,4.51-6.1,3.53-11.68,7.82-18.35,10.54-4.75,1.94-9.3,4.61-14,6.8-.88.41-2.05,1.2-1.78,2.43.12.55,1.33,1.42,1.72,1.27,5.22-1.89,11.15-.16,16.12-3.1A31.84,31.84,0,0,1,821,439.9a6.26,6.26,0,0,0,5.37-4.38C827.62,431.34,829.41,427.31,831.38,422.16ZM70.83,261.82a9.1,9.1,0,0,0,2.45,4.35c6.92,6,10.92,14.44,17.52,20.71,1.27,1.2,1.86,4.36,3.8,3.18,1.7-1,1-3.92.06-5.95a11,11,0,0,0-1.2-2c-2.18-3.06-1.77-5.69,1.22-8A21.66,21.66,0,0,0,97.09,272c1.14-1.19,1.15-1.88-.7-2.55-7.72-2.79-15.38-5.76-23.06-8.66C72.24,260.38,71.18,260.15,70.83,261.82ZM453.22,378c-4.17-1.06-7.32-3.67-10.32-6.57-1-1-2-2.28-4-1.61-2.21.74-.93,2.14-1.13,3.32-.5,3-1.49,5.69-4.22,7.46-1.09.71-2.85,1.5-1.29,3.19,4.11,4.46,8,9.21,12.94,12.78,1,.73,2.34,1.52,3.28.24.7-1-.07-2.22-1-2.8-3.13-1.91-1.75-3.73-.46-6.13C448.83,384.51,452.38,382.24,453.22,378Zm147.07-94.61c-2.24-5-2-10.36-3.43-15.37-.3-1.05-.78-1.93-2-.68-3.12,3.14-6.4,6.13-8.62,10.05-1,1.71,0,3.07.87,4.25,1.27,1.71,2.93,3.13,4.28,4.8,1.22,1.51,2.74,2.27,4.45,1.38A9.92,9.92,0,0,0,600.29,283.42ZM857.18,313.7c3.92.85,7.27-.61,10.66-1.86,5.9-2.19,12-2,18.13-1.61,9.5.54,13.25-1.1,16.14-8.11C886.31,303.28,871.78,308.59,857.18,313.7Zm-574.4-85.4c-1.76-.86-2.59-2.56-4.57-3a21.62,21.62,0,0,1-9.12-4.34c-2.85-2.4-6.13-2.67-9.46-3.18-.72-.11-1.61-.38-2.06.46s.16,1.56.77,2c5.31,3.55,9,8.91,14,12.77a4.66,4.66,0,0,0,6.66-.45c.72-.8,1.56-1.51,2.31-2.29C281.69,229.77,282,229.26,282.78,228.3Zm520.07-85.21c-2.54,4.16-2.89,8.24-2.85,12.5a39.52,39.52,0,0,1-.79,9.55c-1,4-.1,6.17,4.2,6.54a13.2,13.2,0,0,1,2.67.81c2,.62,2.79.31,2.3-2.2-.86-4.35-.71-9-2-13.17C805,152.63,805.94,147.57,802.85,143.09ZM479.36,279.86c5.68-5.56,10.31-11.86,6.11-19.68-2.63-4.91-1.89-7.09,2.76-9.29,2.75-1.3,2.19-3.45.76-5.15C476.6,254.71,480.52,268,479.36,279.86Zm318.22,115.3c0,.32,0,.2,0,.08a1.74,1.74,0,0,1,.45.11,4.64,4.64,0,0,0,3.18-.07,172.88,172.88,0,0,0,40.65-16.87c1.34-.76,5.21-.37,4-3-.84-1.87-3,.91-4.61,1.42C826.16,381.63,812.07,388.93,797.58,395.16ZM629.39,98c-2.66,7.84-.72,15.69-3.42,22.89a1.75,1.75,0,0,0,.46,1.62,1.83,1.83,0,0,0,2.34-1c2-3.48,5.49-4.63,9-5.86A110.28,110.28,0,0,0,629.39,98ZM336.2,229.53a3.4,3.4,0,0,0-2.6,2.16c-2.2,3.83-4,7.79-7.32,11-2.11,2-2.37,5.9-2.45,9.17,0,.63-.15,2.09,1.29,1.4,2.11-1,5.08-.92,6.24-3.13C334.7,243.77,337.46,237.14,336.2,229.53ZM191.54,167.28c3.64,9.32,8.16,16.16,16.14,20.51,2.19,1.19,2.74-.13,3.69-1,1.31-1.15.47-2.29-.63-3a41.52,41.52,0,0,1-5-4.13C201.49,175.7,197.91,170.9,191.54,167.28ZM617.77,365.71c1.9-1.94,3.43-3.66,5.13-5.19,5.54-5,5.91-6.48,2.93-13.13-.29-.65-.77-1.49-1.35-1.69-1.2-.4-1.39.93-1.85,1.62-1.53,2.27-2.73,4.8-4.49,6.87C615,357.88,615.89,361.48,617.77,365.71ZM729.1,197.77c4-.64,5.66-3.08,7.9-4.52,6.74-4.34,15-6.76,18.86-14.82.58-1.22,1.86-.9,2.85-1.19.82-.25,2,.27,2.28-1a2.32,2.32,0,0,0-.62-1.7c-1-1.08-1.5.31-2.24.62-3.34,1.39-5.44,4.39-8.38,6.35C742.73,186.18,736.29,191.63,729.1,197.77ZM164.77,211c.49-3.94,1.67-7.61,1-10.92-.28-1.45-4.29-2.17-6.59-3.26a2.19,2.19,0,0,1-1-.9c-.75-1.53-2.47-2.26-3.45-1.56-1.74,1.24,0,3.3.7,4C159.08,202,161.23,206.77,164.77,211Zm121.87,92.56c-2.45-11-10.93-14.5-18.32-19C272.13,292.51,278.63,297.9,286.64,303.59ZM471.56,147.74a227.36,227.36,0,0,0-15.28,29c4.37-5.59,7.4-12,12-17.43C470.68,156.39,474.18,153,471.56,147.74ZM671.35,106.8a7.34,7.34,0,0,0-.05,5.88c2.22,7.52,5.56,14.7,6.58,22.58a5.37,5.37,0,0,0,1.27,2.44,2,2,0,0,0,1.59.59c.68-.15.73-.84.45-1.5-2.18-5.08-3.09-10.6-5.64-15.58C673.42,117.07,672.25,112.57,671.35,106.8ZM324.67,122c.92,3.33,1.67,6.71,2.84,9.95.58,1.61,1,4.67,2.29,4.46,2.95-.46,2-4,3.08-6.09.44-.83-.82-1.5-1.29-2.25C330,125.4,326.41,124.82,324.67,122ZM547.4,378.68c1.25-1.28,1.93-2.34,2.89-2.9,1.92-1.13,4.15-2.37,4.63-4.36.58-2.41-2.9-2.32-3.89-4.1-.47-.85-1.12-2.13-2.47-1.39-1,.57-.92,1.83-1.16,2.89C546.69,371.86,548,374.84,547.4,378.68ZM507.68,366c-.46-1.41-1-2.82-2.21-3.46s-1.92.8-2.3,1.63a44.3,44.3,0,0,1-2.9,6.21c-.47.7-.72,2.74,1.12,2C504.22,371.14,506,368.55,507.68,366Zm-181,44.4c-2.2,3-.34,6.47-1.51,9.5-.27.7.52,1.82,1.53,2a2.13,2.13,0,0,0,1.7-.34C331.56,418.58,330.69,412.58,326.71,410.41Zm-40.08,21.14c.8-.13,1.9-.31,1.4-2.16-.87-3.17-1.58-6.39-2.35-9.59-.16-.67-.5-1.23-1.21-1.07-.54.12-1.44.64-1.42.91q.48,5.49,1.22,10.95C284.4,431.55,285.35,431.55,286.63,431.55ZM468.91,91c-5.85,6.62-5.85,6.62.67,15.1C468.48,100.76,468.72,96.24,468.91,91Zm194,271.34a45.93,45.93,0,0,0-9,9.15c-.68.89.14,2.15,1,2.81s1.73-.08,2.2-.88C659,370.15,661.53,367.2,662.91,362.31ZM260,414.25c1.07,1.42,1.89,2.28,1.29,4.21-.84,2.64,1.88,2.14,3.19,2.76.8.38,2,.58,1.89-.94a28.94,28.94,0,0,0-.83-6.25c-.09-.29-2.71.18-4.17.27C260.94,414.32,260.48,414.26,260,414.25ZM212.16,240.68a58.57,58.57,0,0,0-1.68,18.53C210.88,253,213.71,247,212.16,240.68ZM565.32,360.5c.34-.1.81-.1.88-.26q2.4-5.69,4.7-11.4c0-.09-.38-.44-.64-.55-.68-.27-1.08,0-1.45.64-1.53,2.62-3.12,5.2-4.71,7.78C563,358.48,564,359.53,565.32,360.5Zm206.6,46.76c-4.65,2.21-8.22,4-10.89,7.16-.37.45-.06,2,.44,2.53.76.88,1.65.09,2.33-.55C766.44,413.89,769.34,411.63,771.92,407.26ZM461.58,354.45c-1.66,2.67-2.07,5.65-3.11,8.42-.58,1.57.47,2.31,1.5,2.94a1.25,1.25,0,0,0,2-1C461.85,361.4,464.87,357.83,461.58,354.45ZM553,329.89c0,1.8,1.14,3.07-.93,4.6s.33,2.87,1.1,4.18c.42.71,1.12,1.36,1.73.38a18,18,0,0,0,2.7-5.3c.39-1.76-2.06-1.37-2.92-2.39A13.93,13.93,0,0,0,553,329.89ZM582.8,106.27a28.73,28.73,0,0,1-1.22,4.66c-1.23,2.8-.12,5,1.39,7.18.46.67,1,1.32,1.74,1a1.93,1.93,0,0,0,1-1.39C586.07,113.67,584.67,110,582.8,106.27Zm-94.09,11.17c-2.53,4.56,3.43,8,1.37,12.63C492.94,127.64,492.12,120.9,488.71,117.44Zm21.9,278.08c1.25,2.55,4.1,3.26,5.08,5.66.29.68,1.84.94,1.77.22-.15-1.43,2.88-.91,1.39-2s.78-7-4.19-3.17C513.51,397.07,512.52,395.13,510.61,395.52ZM101.72,299.44c2.26.9,2.25,5.27,5.73,3.72.83-.37,1.73-1.49.72-3.41C105.88,295.35,103.85,300.08,101.72,299.44Zm258.7,91.07a16.56,16.56,0,0,1,1.95,9.16c2.7-2.52,4.62-5.06,3.82-7.95C365.75,390.15,362.83,390.69,360.42,390.51ZM138,349c1.09,2,1.76,3.4,2.57,4.69.55.88,1.21,2.13,2.51,1.21a6,6,0,0,0,2.43-2.68c.41-1.4-1.23-1.51-2.18-1.82C141.89,349.89,140.4,349.58,138,349Zm283.63,9.7c.58-1.61,3.56-3.55.9-6.18-.78-.77-1.27-.16-1.79.54C418.85,355.53,419.71,357.5,421.63,358.67ZM367.4,416.25c1.69-3.51-1.19-4.94-2.09-7-.42-1-1.79-2.18-3-1.21-1.45,1.2-.4,3,.67,3.44C365.11,412.38,366.26,413.93,367.4,416.25ZM278.65,169.67c-1-3.1-1.58-5.88-4.46-6.37-.92-.15-2.21,2.34-1.91,3.74C273.05,170.66,276.2,168.48,278.65,169.67Zm450,29.51-.41-.83c-.33.27-.78.48-1,.83s-.12,1,.49.85C728.06,200,728.32,199.47,728.61,199.18ZM519.43,403.11c.12.06.26.18.37.16s.14-.21.21-.32l-.61-.23ZM654.48,346a22.26,22.26,0,0,0-2.35-.29c-.12,0-.24.4-.36.61a4,4,0,0,0,1.2.47C653.27,346.82,653.59,346.5,654.48,346ZM367.3,433.77l-.28-.52c-.1.09-.3.2-.29.26a2.72,2.72,0,0,0,.26.58Zm436.37-292c.09-.08.25-.15.26-.24s-.11-.2-.17-.3c-.09.08-.25.14-.26.23S803.61,141.63,803.67,141.74ZM418,405.21l.31-.27-.27-.3-.32.41ZM163.92,359l.32-.21c-.09-.09-.18-.24-.28-.25s-.21.12-.31.19Z" transform="translate(-33.98 -52.2)"/><path class="cls-3" d="M656,660.9c2.51-7.23,6.5-13.76,9.91-20.57,1.15-2.32,2.35-4.62,3.53-6.92,2.07,2.45,2.22,4.81.24,7.55-3.13,4.32-4.35,9.9-8.75,13.43-1.06.86-1,2.19-1.09,3.45C659.75,660.3,658,660.77,656,660.9Z" transform="translate(-33.98 -52.2)"/><path class="cls-4" d="M565.36,70.13A20.57,20.57,0,0,1,559,75.28c-1.51.91-3.86.65-3.91,3.63,0,.88-2.66,1.79-4.48,1.24,3.92-3,5.35-7.87,9.27-11.07C563.07,66.47,564,67,565.36,70.13Z" transform="translate(-33.98 -52.2)"/><path class="cls-4" d="M908,193.83c-3.11,2.84-6.38,5.37-10.83,5.64a6.1,6.1,0,0,0,1.41-2.26C900.64,191.78,903.19,190.92,908,193.83Z" transform="translate(-33.98 -52.2)"/><path class="cls-3" d="M653.94,663.83c-.28-1.68.68-2.48,2.11-2.94C656.21,662.49,655.85,663.71,653.94,663.83Z" transform="translate(-33.98 -52.2)"/><path class="cls-3" d="M293.45,486.47c2.1.25,3.63.45,5.16.6,6.65.66,7.31.23,9.6-6.29.1-.28.06-.63.2-.87,3.17-5.28,2.54-6.47-3.83-7.63a97,97,0,0,1-11-2.67c5.2-.3,4.42-4.09,5.34-7.25,1.13-3.88.55-8.59,4.55-11.43.33-.24-.1-1.54.09-2.49,1.26,2.69,6,2.77,4.93,7.27-.26,1.06,1.21,2.09,2.29,1.75,2.86-.93,5,1.48,7.41,1.42a6.07,6.07,0,0,1,6.16,5.1c.86,7.27,5.62,12.72,7.94,19.27,3.8,10.7,7,21.73,13,31.59,1.79,2.95,2.78,6.37,4.41,9.42,5.25,9.82,11.24,19.18,17.32,28.5,8.58,13.16,16.72,26.62,25.7,39.51,6.22,8.94,10.46,18.88,15.92,28.14,3.09,5.23,6.68,10.33,10.27,15.27,7.79,10.73,14.17,22.33,21.74,33.19,6.42,9.21,11.83,19.14,18.34,28.29,6.73,9.47,11.67,19.88,17.2,30a46,46,0,0,1,3.75,9.72c.39,1.37,1.88,3.72.1,4.46-2.25.93-5.66,1.82-7.26-.73-7.39-11.72-17.17-21.66-24.26-33.63a143.8,143.8,0,0,0-14.34-19.32C426.05,678,420,667,413,656.66c-4.91-7.28-9.92-14.52-14.41-22.07-8.58-14.4-19.19-27.4-28.16-41.52-2.73-4.3-6.56-7.88-9.47-12.08-5.49-7.94-10.38-16.31-16.06-24.11-5.45-7.48-10.87-15-16.8-22.15a235.66,235.66,0,0,1-15.67-21.9C306.63,504,301.34,494.78,293.45,486.47Z" transform="translate(-33.98 -52.2)"/><path class="cls-3" d="M627.08,640.13c3.26-8.15,7.82-15.64,11.9-23.38,9.07-17.23,17.6-34.76,25.33-52.59,5.22-12,11.48-23.44,17-35.27,3.88-8.37,7.68-16.81,10.93-25.5s7.52-16.73,11.57-25c4.6-9.37,10-18.38,13.3-28.69.7,1.42,1.32,2.62,1.88,3.85,3.16,6.83,3.16,6.83,10.62,5.63a3.51,3.51,0,0,1,.89-.14c6,.47,6.74-.64,4.64-6.7a92.1,92.1,0,0,1-3.19-11.56c1.94,4.36,4.81,3.08,7.73,1.86,3.39-1.41,7.05-1.87,10.56-2.83,2.2-.61,3.77,1.24,3.66,1.74-.34,1.6,1.79,3.87-1.08,4.85-3.38,1.16-2.2,3-1.13,5.38,1.91,4.28,4.29,9.76.28,13.18-5.72,4.88-8.47,11.68-13.31,17.11-8.75,9.83-16.51,20.54-24.14,31.36-5.56,7.9-9.63,16.53-14.58,24.65-6.09,10-10.86,20.94-16.25,31.45-7.95,15.51-15.75,31-25.56,45.54-3.84,5.7-6.27,12.6-9.52,18.87-3.66,7.06-7.34,14.13-11.14,21.12-4.22,7.74-7.43,16-12,23.54-6.82,11.13-11.23,23.5-18.53,34.48-5.41,8.15-9.72,17.14-13.66,26.21-.67,1.56-.83,5.15-3.92,1.5-1.12-1.33-2.62.63-4.21,1,3.11-17.64,8.27-34.22,17.64-49.33,1.27-2.06,1.7-4.62,2.72-6.86,1.24-2.73,1.88-5.81,5.68-6.72,2-.48,1.45-3.13,1.52-4.85A18.25,18.25,0,0,1,618,661.2a2.5,2.5,0,0,0,2.61-1.36c3.27-5.34,4.38-11.55,7-17.12A2.29,2.29,0,0,0,627.08,640.13Z" transform="translate(-33.98 -52.2)"/><path class="cls-3" d="M634.06,406.68c2.79.62,4.45-1.36,6.49-2.66,4.28-2.71,8.77-5.06,14.11-6-1.46,2.76,1.06,6.5-2.6,9-1,.71.32,2.38,1,2.68,2.26,1,2.21,3.16,3.11,4.86,2,3.8,3.24,6.9-.86,10.9-1.38,1.34-2.85,5.73-3.26,8.81-.74,5.52-4.47,9.47-6.51,14.26-3.51,8.22-7.64,16.18-10.52,24.69-1.66,4.9-4.06,9.57-5.42,14.54-3.38,12.35-6.43,24.79-9.48,37.22-2.9,11.8-5.92,23.57-8.38,35.46-2.3,11.08-7.08,21.38-9.75,32.22-1.77,7.21-3.41,14.63-4.86,22-2.26,11.46-5.36,22.76-8.14,34.12-2.83,11.53-6,23-8.48,34.6C577.87,695.5,574,707.27,569.94,719c-.31.87.12,2.53-1.69,2.09-1.33-.33-.69-1.53-.69-2.35q.16-18.36,2-36.63c.79-7.81.74-15.66,1.36-23.49,1-13.07,4.92-25.48,7.71-38.14,1.93-8.71,4-17.43,6.23-26,4.28-16.16,6.58-32.71,10.64-48.91,1.19-4.77,1.12-9.85,2.12-14.68,1.93-9.32,4.48-18.52,6.27-27.86s3.5-18.81,4.76-28.33a262.07,262.07,0,0,1,5.09-26c2.45-10.36,5.6-20.69,5.89-31.57,1.47.1,1.66,1.63,2.38,2.47,5,5.86,4.93,5.89,12.34,3.31a1.54,1.54,0,0,1,.46-.11c1.87.05,4.52,1.52,5.2-1.17.59-2.3-.93-4.65-2.25-6.76-1.54-2.46-3-5-4.41-7.53Z" transform="translate(-33.98 -52.2)"/><path class="cls-3" d="M541,714c-1-13.08-4.7-24.42-3.61-36.64.9-10.24-.34-20.69-.87-31-.5-9.74.57-19.41.81-29.12.24-9.17.73-18.35,1.19-27.51.54-10.84.84-21.69.77-32.51-.08-12.05.83-24.11-.74-36.19-.64-5,.28-10.4.68-15.54,1-12.67.12-25.2-.37-37.82-.36-9.21-.21-18.49.23-27.76.46-9.91,1.13-19.9,0-30a7.89,7.89,0,0,1,5,3.42c1.7,2.58,4.28,2.38,6.08,1.82,2.93-.93,5-3.7,8.49-4.18,1.63-.23,1-2.28.08-3.85-2.24-3.74-5.85-6.25-8.31-9.76-.6-.87-1.7-1.45-1.2-3.33,2.12,2.63,3.93,2.17,6.07,0,3.69-3.69,6.86-8.25,12.73-8.93.48-.06-.17-1.59,1.51-1.56-1.08,3.11,2.16,6.33-.92,9.39-.69.68.39,1.93,1.17,2.22,2.75,1,3.53,3.68,5.18,5.6,2.54,2.94,3.51,5.84.21,8.91-.26.24-.24.84-.23,1.27,0,9.19-2.88,17.74-5.44,26.41a121.9,121.9,0,0,0-4.4,19.91c-.77,6.38-2.81,12.54-3.15,18.94-.68,13-2,25.9-2.2,38.91-.22,12-1.09,24-1.36,36-.25,11.32-2.69,22.41-3.44,33.59-.49,7.23-.5,14.72-.53,22.08,0,11.85-1.09,23.68-1.47,35.52-.48,15.23-3.48,30-6.53,44.88-1.29,6.25-3.29,12.49-3.08,19A10.9,10.9,0,0,1,541,714Z" transform="translate(-33.98 -52.2)"/><path class="cls-3" d="M367.72,434.18a9.5,9.5,0,0,1,6.06,1.1,4.74,4.74,0,0,0,6.14-1.27c1.82-2.26,2.88-5,5.6-6.73,1.46-.94.64-2.79-1.11-3.66-4.74-2.33-9.47-4.69-14.44-7.5,4.35,1.12,5-1.78,6.2-4.56,1.89-4.21,2.45-9.38,7.42-11.73.3-.14.1-1.34.36-2.13.81,3,5,4.47,3.45,8.63-.42,1.12,1.35,1.95,2.27,1.79,2.32-.38,3.61,1.25,5.35,2.09,4,2,6.81,4,5.54,9.54-.43,1.87,1.25,5.07,2.06,7.42,3.67,10.62,3.43,21.86,6.05,32.58,2.3,9.36,3.36,19.27,7.27,27.89,3.63,8,5.62,16.42,9.11,24.4,8,18.22,15.05,36.82,22.23,55.37,2.1,5.42,3.35,11.18,4.9,16.81,2,7.13,5.62,13.59,8.18,20.5,3,8.14,6.06,16.34,9.51,24.32,3.91,9,6.12,18.43,8.23,28,2.94,13.25,7.41,26.13,9.27,39.65.39,2.85,1.77,5.56,2.51,8.38.27,1.05,1.25,2.6-.43,3.24-1.5.58-1.53-1-2-1.93a203,203,0,0,1-11.52-23.91,241,241,0,0,0-11.39-24.77c-6-11.08-9.85-23-14.65-34.53-3.37-8.1-6.65-16.27-9.71-24.47-5.84-15.67-13.48-30.55-19.44-46.16-1.76-4.59-4.79-8.69-6.74-13.23-3.63-8.42-6.62-17.13-10.39-25.48-4.14-9.15-8-18.39-13.13-27.12a129.82,129.82,0,0,1-9.73-21.28C376.94,454.88,372.4,444.7,367.72,434.18Z" transform="translate(-33.98 -52.2)"/><path class="cls-3" d="M454.16,403.9c3.42-.25,3.92-3.34,5.48-5.48,2.82-3.9,5.67-7.82,10.06-10.2-.3,2.63,3.83,4.83,1.36,8.46-.57.83.47,2,1.36,2.09,3.54.52,5.05,3.77,7.69,5.43,3.11,1.95,1.91,4.64,1.58,7.17-.05.33-.87.76-.63,1.45,2.71,7.64,1.38,15.62,1.23,23.34-.15,7.5-1.38,15.06-.41,22.53,1.27,9.9.56,19.84,2.71,29.87,1.89,8.83,2.85,18.14,4.42,27.19,2.95,17,6.4,34,9.32,51,1,5.89.78,12,1.61,17.92q1.53,10.92,3.92,21.72c1.77,8,3,16.19,4.36,24.31,1.47,8.84,3.6,17.57,5,26.42,2.07,13.52,6.05,26.76,5.85,40.61a6.84,6.84,0,0,1-1.14,4.24c-3.32-8.34-7.06-16.39-9.71-24.78s-6.54-16.57-9.46-24.93c-3.11-8.92-7-17.6-8.35-27.22-1.39-10-3.69-20-5.4-30-3.09-18-6.94-35.86-11.36-53.53-3.06-12.24-5-24.65-7.86-36.9-2.17-9.47-4.56-18.88-7.25-28.24a313.21,313.21,0,0,1-7.39-34.25c-1.29-7.63-2.34-15.51-6-23.2,2.48,1.27,5,2.07,6.82,3.62a5,5,0,0,0,6.29,0c2.32-1.7,3.71-4.42,6.87-5.47,1.53-.51,1.18-2.66-.36-3.84q-5.62-4.33-11.27-8.64Z" transform="translate(-33.98 -52.2)"/><path class="cls-5" d="M480.74,884.68c3.62.12,6.8-2.63,10.33,0,.72.54,2.36-.14,3.28-1.16.16-.18,0-1.35.4-.52,1.36,2.7,3.54,1.33,5.43,1.46,9.2.62,18.42.33,27.61.52,9.8.21,19.7.77,29.5,1.2,6.94.31,14.09,1.42,21.19.32,2.12-.33,5.18.29,6.53,1.7s-1,3.75-1.45,5.68c-1.21,5.07-4.6,9-6.48,13.59-1.26,3.11-2.86,5.91-5.65,7.7-2.17,1.4-1.2-19-2-17.29-2.92,6.23-6.42,13.2-12.43,15.61s-11.27,7.14-18.59,7.32a34.26,34.26,0,0,1-8.22-1.08c-5-1-10.25-1-15.39-1-4.09,0-8.09-.88-12.12-1.21-1.72-.14-3.27-3.86-4.66-6.1-3.11-5-4.86-10.6-7.19-16-3.88-9-7.26,4.56-8.22-5.27C482.43,888.47,481.46,886.76,480.74,884.68Z" transform="translate(-33.98 -52.2)"/><path class="cls-6" d="M572.76,855.75l-2.19-.08-7.07-.37A309.48,309.48,0,0,1,530,854.15c-7-.6-14.28-.42-21.43-.72-.75,0-2.06.07-2.17-.23-1.88-5.22-5.83-2.18-8.95-2.35-7-.63-14.17-.78-20.38-4.87,1.62-7.05-1.5-13.62-2.08-20.44-.22-2.49.4-4.38,3.87-4.19,4,.22,8-.76,12,.58,3.09,1,5.57.21,5.15-3.85-.24-2.4.84-2.23,2.77-2.07,7.41.58,14.86,1.22,22.28,1.1,4-.06,7.55,1.52,11.34,2,4.38.59,8.48,2.28,13.26,1.64,3-.39,6.75.38,9.83,1.25,3.69,1.05,7.24.52,10.82.92,5.11.56,10.45-.25,15.06,2.93,1.65,1.14,4.2-1.58,5.62,1.37s3.9,5.07,2.14,9.68c-2.3,6-1.18,12.88,1.07,19.18Z" transform="translate(-33.98 -52.2)"/><path class="cls-4" d="M927.59,225.23c-5.45,0-10,3.6-15.42,3.73h0c-.33-.44-.65-1.24-1,0l.06-.08c-8,2-15.41,5.65-23,8.66-16,6.33-30.91,15.12-46.68,22-3.65,1.59-7.36,4.56-11.42.07-.76-.83-4.11-.3-4.76,2.25-.6,2.38-2.29,3.95-3.65,5.8-2.76,3.77-2.34,5.55,1.73,7.85,1.38.79,1.45,2.22,2,4.05-6.82-1.24-7,5.33-10.2,8.44-1.72,1.67,3.17,13.5,5.49,14.59a2.72,2.72,0,0,0,3.85-1.41c2.74-5.36,7.24-6.2,12.83-6.67a94.87,94.87,0,0,0,24.38-5.46c12.57-4.53,25.19-8.91,37.67-13.67,6-2.27,11.68-5.27,17.5-7.94,0,1.22.51,2.82-.66,3.49-4.22,2.43-3.34,6.45-3.5,10.19-.85,3.74-2.2,6.3-6.86,4.2-6.09-2.75-11.78-2.74-18.44.11s-14.11,3.26-21,5.64c-7.61,2.62-15.4,4.77-22.79,7.89C835,302.64,826,305.52,817.25,309c-1.06.42-2.1,1-2.93-.14a89.4,89.4,0,0,1-6.28-9c-3.82-6.86-2.57-14.44-2.77-21.86-.41-15.3,1.23-30.48,1.81-45.72.1-2.46-1.4-4.82-.11-7.66a17,17,0,0,1,5,8,75,75,0,0,0,4.83,12,4.7,4.7,0,0,0,4.92,2.74c2.15-.13,3.91-1.1,3.73-4.29a29.32,29.32,0,0,0,2.68,3.18c1.73,1.5,2.62.88,3.12-1.25.38-1.64-1.33-4.29,1.15-4.8,3.77-.77,7.72-3.65,11.56-.18.57.51.74,1.09,1.77.76,11-3.44,22.27-5.41,33.55-7.44.81,2.07,2.93,2.22,4.76,3.31-1.9-4.24,2.62-6.93,2-10.7,4.28-3.9,9.93-5.18,14.94-7.66,7.54-3.73,15.27-7.06,22.92-10.57.16.26.52.63.44.76-3.37,6.12-2.69,11.46,2.95,15.91C927.5,224.52,927.49,224.94,927.59,225.23Z" transform="translate(-33.98 -52.2)"/><path class="cls-4" d="M766.79,367.38c1.21-6-2.06-11.14-3.32-16.62A100.31,100.31,0,0,1,761,328.19a17.65,17.65,0,0,1,3.33-10.38c1.56-2.31,4-4.42,2-7.86-.8-1.4.94-1.56,1.89-1.94,1.81-.72,2.29.73,2.57,1.83.69,2.68.74,5.58,1.71,8.13,3,7.84,5.68,15.83,10,23.08.41.67,1.15,1.59.59,2.08-3.47,3.06-.95,7.2-1.91,10.79-1.42,5.28,2.53,8.29,8.21,5.71s11.65-3.64,17.4-5.59c5.32-1.81,10.23-4.8,15.46-6.91,8.64-3.48,17.9-5.75,26-10.2,10.57-5.82,22.91-4.17,33.42-9.5a5.36,5.36,0,0,1,4.85,0c-2.77,7.62-7,14.7-10.37,22.16-.84,1.85-2.38,2.52-4.55,2.56a186,186,0,0,0-19,.91c-6.62.77-12.37,4.45-18.6,6.62-16.28,5.67-31.52,13.75-47.34,20.5a99.64,99.64,0,0,0-14.55,7.93c-3.72,2.38-8.92,1.54-11.55,5.89-4-4.76,2.2-6.23,2-10.06,1.89,1.76,2.36,5.28,4.79,4.32,2.85-1.13,1.66-4.44,1.44-6.73-.42-4.45-1.37-8.84-2.1-13.26l-.07,0,.91-.33-.86-.67Z" transform="translate(-33.98 -52.2)"/><path class="cls-4" d="M766.43,149.16c-5.09,4.19-11.4,6.35-16.81,9.71A162.2,162.2,0,0,0,732,171.73c-13,10.8-26,21.68-39.2,32.24-2.09,1.67-4.85,3.82-8.38,1.48a3,3,0,0,0-4.55,2.31c-.32,3.06-2.15,5.46-2.72,8.25s-1.86,6.64,3.54,6.15c1.78-.16,2.06,1.29,2.56,2.24.6,1.11-.76,1.45-1.43,2-1.1.87-2.23,1.69-3.32,2.58s-3.75,1.68-1,3.76c-3.46,4.45,1.69,7.21,2,10.84.28,2.79,2.18,3.65,3.89,4.8,2.53,1.69,4.2.94,5-2.13,1.25-4.83,5.55-7.4,10.45-8.88a71.27,71.27,0,0,0,17.92-8.5c10.47-6.74,20.82-13.67,31.1-20.69,2.16-1.48,4.94-1.79,6.59-4.35.9,3.37-.5,5.22-2.47,7.22-6.57,6.68-15.41,9.59-23.11,14.37-9.6,6-19.16,11.95-28.12,18.89-4.89,3.79-10.54,6.59-15.42,10.39-2.89,2.25-5.17,3.19-7.56.09-1.74-2.27-4.23-3.53-6.16-5.58-5.17-5.51-5.1-12.78-7.4-19.25-3.56-10-.38-20.09-1.19-30.1-.15-1.85-.14-3.71-.21-6,2.42,3.72,6.12.54,9.09,2.16,1.07.58,2.8-.15,3.43,1.86,1.06,3.41,5.57-.16,6.77,3.19.54-5.19,9.07-2,8.66-8.21,0-.26.73-.84.83-.78,3.16,1.84,4.13-1.55,6.16-2.41,5.61-2.37,8.69-6.79,11.68-11.79,2-3.41,5-6.44,9.47-7.52,3.22-.77,7.52-1.49,5.53-6.85-.33-.88.25-1.36.91-1.89,6.36-5.11,12.59-10.4,19.07-15.36,5.78-4.44,11.45-9,16.85-13.88,1.49-1.34,2.89-3.52,5.56-2.52.3,1.79.16,3.8,2.73,4.18a1.68,1.68,0,0,1,1.34,2.11c-.41,2.8-4.32,4.78-1.74,8.48C769.59,145.22,767.41,147.6,766.43,149.16Z" transform="translate(-33.98 -52.2)"/><path class="cls-4" d="M419.62,193.5c3.89-6.25,5.54-13.46,8.72-20a103,103,0,0,0,5.61-13.3c1.18-3.66,2.57-7,5.63-9.55.85-.7,2.26-2.14,1-3.15-3.41-2.8-.89-5.14.31-7.5,5.92-11.72,11.95-23.38,17.89-35.09,1.1-2.16,2-4,3.73-.45a1.2,1.2,0,0,0,.65.61c7.37,1.54,4.91,7.18,4.58,11.6-.39,5.26-2,10.19-7.09,13-2.24,1.22-1.78,3.82-2.94,5.64a285.56,285.56,0,0,0-20.81,39.17,156.89,156.89,0,0,1-10.43,20c-1.45,2.32-2.58,6.83-7.71,5-1.11-.4-3.63,2.12-2.65,4.78a15.36,15.36,0,0,1,.73,6.36c-.27,5.12,1.21,6.35,6.32,5.52,1.32-.21,2,.76,2.84,1.28,1.17.73,0,1.72-.54,2.15-4.12,3.66.17,8.16-1.3,12.05,4.43,1.88,6.33,7.6,11.94,7.76,2.61.07,3.95-1.28,3.53-3.56-1.08-5.85,1.66-9.3,5.86-13.07a78.09,78.09,0,0,0,15.89-19.22c4-7,9.54-13.05,13.22-21.61.81,8.87-3.81,14.31-7.73,19.82a228.82,228.82,0,0,0-15.48,24.21c-.87,1.62-1.16,2.84-4.07,3s-5.31,5.42-5,7.62c.79,5.34-4.3,7.43-4.58,12.07.47-4.23-1-5-4.35-3.37-2.92,1.4-11.17-.69-13.17-3.21-4.5-5.67-9.32-11.13-13.39-17.09a30.23,30.23,0,0,1-5.6-15.85c-.14-3.41-.27-6.92-3.18-9.42-1.41-1.22-.93-2.83-1-4.34l-.08.08c6.25,1.75,9.35-.13,8.56-5.18l.44-.45,5.21.47c-.06,3.56,4.66,4,4.53,7.32C418.08,197,418.43,194.89,419.62,193.5Z" transform="translate(-33.98 -52.2)"/><path class="cls-4" d="M167.23,290.12c.77,0,1.54-.1,2.31-.08,1.47,0,3.1-.11,3.53-1.63s-1.18-2.44-2.39-2.9c-2.27-.85-2.82-2-1.63-4.2,1.64-3,1.18-6.89,5.67-8.67,1.87-.75,1.35-5.51,2.66-8.39,1.84-4,2.79-8.49,3.8-12.84.84-3.65,2.9-6.83,3.79-10.39.69-2.8,2.78-1.58,4.09-1.69,2.85-.24,3.42-1.44,2.39-3.8-2.55-5.86-1.37-11.59.56-17.27.27-.79.7-2,1.82-1.82a2.2,2.2,0,0,1,1.73,2.44,42.27,42.27,0,0,1-.74,7.89c-2.77,12-2.29,24.27-3.54,36.39-.81,7.91-.67,15.92-1.61,23.81-.33,2.75-.49,6.64-4.9,7.36-1.56.25-2.12,2.91-1.74,3.35,3,3.37,2.56,8.58,6.48,11.44,2,1.43,3.45,2.11,5-.33.75-1.22,1.82-.91,2.9-.62,1.63.44,1.2,1.8.87,2.67-1.76,4.62,3,7.12,3.44,11,4.83,0,8.74,4.74,14,2.74,2.55-1,3.29-2.72,1.89-5.09-2.65-4.5-1.73-9,.43-13.64,2.87-6.1,4.47-12.8,6.56-19.26.52-1.61.86-3.28,1.37-5.28,2.75,2.4.93,5.19.32,6.8a27.74,27.74,0,0,0-1.55,10.77c.25,10.51-2.62,20.64-3.71,31-.2,1.89-.74,2.71-2.78,2.81-3.26.15-6.5,1-9.75,1-8.06-.05-14-5.3-20.73-8.71-10.53-5.33-20-12.28-30.07-18.32-5-3-9.62-6.59-16.2-9.11,4.24-1.22,7.35-1.36,10.24-.59,4.11,1.08,8.29,1.2,12.45,1.7a4.81,4.81,0,0,0,5.49-3.31C170.64,292.81,169.69,291.18,167.23,290.12Z" transform="translate(-33.98 -52.2)"/><path class="cls-4" d="M502.45,410.8c1.7,1.05,3.63,1.87,5.07,3.22,3.38,3.18,6.4,2.4,9.22-.54,1-1,1.61-2.48,3.29-1.58,1.52.82.6,2.16.36,3.3-.16.75-.72,1.64-.49,2.21,3.72,9,0,18.08.24,27.11s.37,17.75.9,26.64c.68,11.56.27,23.2.06,34.8-.2,10.85-1.06,21.67.08,32.53.83,8-.41,16.12-.25,24.21.19,9.24-.63,18.5-1.06,28.64-2.49-9.5-2.14-18.54-3.46-27.34-2.07-13.8-2.27-27.8-4.86-41.57-1-5.32-.68-11-.67-16.51,0-11.77-2.16-23.22-3.64-34.76-1-7.63-1.45-15.26-2-22.91-.9-12.52-.81-25.11-2.72-37.54Z" transform="translate(-33.98 -52.2)"/><path class="cls-4" d="M592.11,210.69c.47,6.17-3.24,9.54-6.46,13-4.26,4.5-9.13,8.44-13.23,13.07-2.62,3-4.31,4.75-7.87,1.15-1.56-1.58-4.5-1.54-6.53-3.15-9-7.19-10.73-18.59-16-27.92-3-5.32-4.54-11.45-6.8-17.19-.63-1.58-1.88-3.15.15-4.5,1.81-1.21,3.76-2.39,6.06-1.21,1.37.71,2.58,1.72,4,2.37,5,2.33,10.13-1.15,10.27-6.74.06-2.55.81-5.07-1.05-7.37-.64-.79-.38-1.68.7-2.26,3.19-1.74,5.31-5.91,9.95-4.33.61.21,1.34.3,1.66-.34,3.6-7.13,9.62-1.73,14.31-2.25,3-.35,2.46,4.35,1.2,6.81-2.58,5-6.77,8.81-10.17,13.22a26.12,26.12,0,0,1-6.85,6.13,2.7,2.7,0,0,1-3,.28c-3.51-1.59-4.76.8-4.75,3.52a22.23,22.23,0,0,1-.74,6.3c-1.36,4.94-.25,6.28,4.91,6.77,1.54.15,3.34,1.67,2.4,2.83-2.26,2.8-5.55,4.75-3.55,9.3.3.68-2.67,2.94-.71,4.13,4,2.42,4.25,8.55,9.71,9.32,2.58.37,4-.71,3.78-3.2-.41-4.76,2.84-8.21,5.89-9.66C583.8,216.63,587.37,213.54,592.11,210.69Z" transform="translate(-33.98 -52.2)"/><path class="cls-4" d="M279.82,463.57c-7.7-1-14.26-5.09-20.89-8.49-13.81-7.06-25.68-17.31-39.05-25.14-3.4-2-7.59-2-11.36-3.24-8.09-2.65-15.78-6.3-23.87-8.85-3.93-1.24-8.34.39-12.4-1,1.28-7.24-.43-9.47-8.22-10.71-4.55-5.38-8-11.18-6.11-18.61,1.05-4.17-3.2-7-2.49-11.08,4.1,1.45,6.47,5.49,10.73,6.7,1.42.4.82,1.84-.36,2.41-1,.47-2.13.54-3.09,1-2.32,1.16-3.2,3.46-3.43,5.75-.19,1.94,1.8,2.63,3.24,3.57,5.19,3.4,10,7.64,15.53,10.19,14.19,6.51,28,13.84,43,18.53,11,3.43,21.33,8.77,32.12,12.66,9.76,3.51,19.53,7.79,30.09,8.84,3.82.38,1.9,3.06,1.54,4.3a73.6,73.6,0,0,0-2.06,11.36Z" transform="translate(-33.98 -52.2)"/><path class="cls-4" d="M655.09,346c.08-4.36-1.49-7.8-3.2-11.3-3.26-6.68-1.53-13.86-1.38-20.84.11-5.32-1-10.93,2.68-15.68,1-1.24,1.3-3.6,3.6-2.71,2.06.8.55,2.45.65,3.78a40.51,40.51,0,0,0,2.41,11.94c1.66,4.1,5.94,3.94,10-.22,3.52-3.59,7.58-6.37,12.39-7.25,4-.73,4.73-4.55,7.6-6.31,4.56-2.79,8.68-6.31,12.94-9.58.94-.71,1.87-1.41,2.87-.47s-.25,1.64-.52,2.44a49.83,49.83,0,0,1-1.95,5.71c-1,2.16-1.87,5-5.37,2.54-1.51-1.05-3.06,0-3.93,1.43-1.3,2.1,1.12,2.17,2,2.88,1,.84,1.31,1,1.19,2.78-.62,9.48-8.53,13.23-14.29,18.1-8.44,7.13-18,12.92-25.31,21.43A9.31,9.31,0,0,1,655.09,346Z" transform="translate(-33.98 -52.2)"/><path class="cls-4" d="M259.91,405.93c0,1.64,0,1.81-.9,1.54-2.8-.84-5.87-1.34-8.27-2.86-6.32-4-13.44-5.5-20.49-7.24-12.14-3-22.18-9.93-32.36-16.68a97.5,97.5,0,0,0-12.5-7.09c-7.47-3.49-13.55-8.9-20-14.29a15.8,15.8,0,0,1,4,.88A176,176,0,0,0,194.2,370a131.36,131.36,0,0,0,34.44,6.09c2.51.14,4.17,1.35,6.29,2.63,4.65,2.79,7.92,7.11,12.57,9.66-.71,3.57,2.47,6.54,4,7.47C255.71,398.4,256.39,403.27,259.91,405.93Z" transform="translate(-33.98 -52.2)"/><path class="cls-4" d="M289.2,201.46c5.4-1.82,5-7.2,7.75-10.48,2.51-3,4.11-6.84,5.9-10.41,1.14-2.28,1.55-1.33,3.51-.48,7.86,3.37,5.61,8.76,3.95,14.46-2.16,7.38-3.71,15-6.27,22.21-.89,2.52-1.43,6.62-6.32,6.35-1.63-.09-3.21,2.68-1.93,4.74,1.57,2.5,1.68,5.24,2.3,7.94.84,3.63,3.23,4.82,6.47,3.12a2.67,2.67,0,0,1,3,.2c1.48.82.71,2,.21,2.81-2.76,4.42,1.9,7.79,1.57,11.83,4.77.46,7.58,6.29,12.9,4.95,4.14-1,4,2.36,4.19,4.26s.21,4.75-3.68,4.33c-4.95-.55-10.65.08-14.56-2.42-4.36-2.79-8.91-6-12.44-10.08-.41-.48-.8-1-1.2-1.44-1.62-1.9-6.58-2.65-1.95-6.69.86-.75.57-3.46.14-5.37-1.94-8.44-.12-16.78,1.08-25.11.46-3.18.05-6.36.58-9.58C294.8,203.86,291.32,203.27,289.2,201.46Z" transform="translate(-33.98 -52.2)"/><path class="cls-1" d="M578.21,521.63c.52-8.36,0-16.74.95-25.11,1.46-12.52,2.4-25,4.54-37.54,2.89-16.88,9.64-32.76,11.84-49.75.09-.75,0-1.8.49-2.17,1.33-1.08,1.44-4.39,3.62-3.24,1,.55,2,3.12,2,5.42,0,5.39-2,10.52-1.61,15.94.34,4.9-1.71,9.38-3,14a230,230,0,0,0-5.38,25.89c-2.1,14.11-4.77,28.13-7.29,42.18a13.51,13.51,0,0,1-1.63,3.33c-2,1.8-2,4.24-2.24,6.65C580.37,519,580.62,521,578.21,521.63Z" transform="translate(-33.98 -52.2)"/><path class="cls-4" d="M344.46,450.25c3.26,0,6.67,1.61,10.38,1.83,2,.12,3.14,3,3.66,5,3.46,13.23,9.38,25.49,15.52,37.52,4.63,9.07,8.83,18.32,13.13,27.53,3.67,7.85,6.76,16,10,24,3.87,9.6,9.61,18.32,12.95,28.16a7.31,7.31,0,0,1,.57,3.73C389.16,535.12,365.25,493.45,344.46,450.25Z" transform="translate(-33.98 -52.2)"/><path class="cls-1" d="M448.27,520.09c-1.09-5-4-9.3-5.71-14.08-5.3-15-10.76-30-14.58-45.56-3.3-13.41-4.19-27.11-7-40.53-.72-3.53-1.9-7-2.82-10.45-.29-1.08-.38-2.39,1-2.68,1-.2,1.67.89,1.91,1.74,1.23,4.38,2.68,9,4.91,12.6,2.77,4.49,1.86,9.71,4.75,14,2.59,3.89,2.27,8.91,2.9,13.5a228.78,228.78,0,0,0,5.48,25.87c3.92,15.16,8.71,30.13,10.7,45.74Z" transform="translate(-33.98 -52.2)"/><path class="cls-4" d="M454.74,291.24c5.25,2.27,5.09,7.27,5.85,11.76,1,6.08-1.4,11.55-3.53,16.93-2.35,6-3.49,12.4-7,18.9-1.28-4.44-2.94-7.47-6.83-9-1.46-.56-2.74-2.49-3.4-4.09-4.11-9.95-8.05-20-11.95-30-.42-1.08-2.41-2.8-.44-3.37a4,4,0,0,1,5,2.74c1.49,4.39,3.79,8.56,7.43,11.4,3.33,2.6,5.8,1.54,8.4-3.58,1.76-3.48,2.38-7.56,6.25-9.7C455.12,293,453.74,291.91,454.74,291.24Z" transform="translate(-33.98 -52.2)"/><path class="cls-4" d="M557.21,324.35a24.73,24.73,0,0,1-8.32-11.57c-1.66-5.43-5.79-8.28-8.83-12.08-11.61-14.5-8.09-10.13-3.48-26.48.8-2.86,1.93-4.14,4.75-1,3.14,3.49,7.09,6.24,10.68,9.32.57.49,1.52,1,1.53,1.57.17,6.2,3.23,11.3,6.06,16.49,1.35,2.47,1.95,7,.16,9.25C556.45,314,555,318.27,557.21,324.35Z" transform="translate(-33.98 -52.2)"/><path class="cls-4" d="M681.46,433.17c-.61,4.41-3.42,7.69-5.74,11.23a6.39,6.39,0,0,0-1.21,1.91c-1.75,8.2-7.33,14.5-11.14,21.62-2.48,4.65-4.78,9.41-7,14.15-1.93,4.12-3.91,8.27-5.54,12.52a362,362,0,0,0-13.36,41.67c-1,3.9-3.05,7.44-3.26,11.53-.17-6.38,2.23-12.27,3.54-18.33,2.56-11.87,5.92-23.56,9.49-35.19A235.78,235.78,0,0,1,665,451.14a160.36,160.36,0,0,0,10.38-23.63c.53-1.52,1.56-2.6,3-2.53,1,.06,1.46,1.44,1.4,2.62-1.1,2.25-2.14,4.52-1.76,7.51C679.18,433.94,680.06,433,681.46,433.17Z" transform="translate(-33.98 -52.2)"/><path class="cls-1" d="M927.59,225.23c-.1-.29-.09-.71-.3-.87-5.64-4.45-6.32-9.79-2.95-15.91.08-.13-.28-.5-.44-.76,5.91-2.53,12.33-3,18.52-4.29,1.48-.32,2.43,1.18,1.88,3.3-2.26,8.55-4.15,17.19-6.41,25.74-1.1,4.18-2.72,8.23-4.1,12.34l-1.49,0c.21-2.92-2-2.3-3.33-1.89a13.18,13.18,0,0,1-6.05.77v-.09c.54-2.1,2.56-1.87,4-2.59,2-1,4-2.59,3.91-4.61s0-4.93-3.64-4.91C931.46,227.3,931.47,226.83,927.59,225.23Z" transform="translate(-33.98 -52.2)"/><path class="cls-4" d="M321.06,311.73c7.45-1.49,9.62,5,13.67,8.42,1.86,1.54,3.09,4.25,5.78,4,4.54-.42,5.18,3.41,5.33,5.72a51,51,0,0,0,1.86,10.68,8.07,8.07,0,0,1-.46,5.49c-.51,1.1-1.08,1.79-2.4.81-3.35-2.47-7.19-4.26-10-7.47-1.72-2-4.25-2.75-6.58-3.3-4.38-1-5.51-3.85-5.71-7.79C322.25,322.79,322.53,317.22,321.06,311.73Z" transform="translate(-33.98 -52.2)"/><path class="cls-3" d="M657.24,532.49c2.27-6.83,4.42-13.67,7-20.4,2.57-6.56,4.79-13.26,7.44-19.84,5-12.47,12.33-23.69,18.8-35.36,3.05-5.49,4.85-11.6,8.57-17.1,1.51,3.43.59,5.91-1.59,8.14-.43.44-1.15.92-1.16,1.39-.23,9.93-7.74,16.57-11.23,25-3.37,8.15-7,16.21-10.41,24.33-4.87,11.5-9.39,23.27-16.12,33.93Z" transform="translate(-33.98 -52.2)"/><path class="cls-4" d="M831.38,422.16c-2,5.15-3.76,9.18-5,13.36A6.26,6.26,0,0,1,821,439.9a31.84,31.84,0,0,0-14.08,4.71c-5,2.94-10.9,1.21-16.12,3.1-.39.15-1.6-.72-1.72-1.27-.27-1.23.9-2,1.78-2.43,4.72-2.19,9.27-4.86,14-6.8,6.67-2.72,12.25-7,18.35-10.54C825.61,425.29,828.06,424,831.38,422.16Z" transform="translate(-33.98 -52.2)"/><path class="cls-1" d="M70.83,261.82c.35-1.67,1.41-1.44,2.5-1,7.68,2.9,15.34,5.87,23.06,8.66,1.85.67,1.84,1.36.7,2.55a21.66,21.66,0,0,1-2.41,2.18c-3,2.27-3.4,4.9-1.22,8a11,11,0,0,1,1.2,2c.89,2,1.64,4.92-.06,5.95-1.94,1.18-2.53-2-3.8-3.18-6.6-6.27-10.6-14.73-17.52-20.71A9.1,9.1,0,0,1,70.83,261.82Z" transform="translate(-33.98 -52.2)"/><path class="cls-3" d="M453.22,378c-.84,4.21-4.39,6.48-6.21,9.88-1.29,2.4-2.67,4.22.46,6.13.95.58,1.72,1.83,1,2.8-.94,1.28-2.25.49-3.28-.24-5-3.57-8.83-8.32-12.94-12.78-1.56-1.69.2-2.48,1.29-3.19,2.73-1.77,3.72-4.5,4.22-7.46.2-1.18-1.08-2.58,1.13-3.32,2-.67,3,.61,4,1.61C445.9,374.36,449.05,377,453.22,378Z" transform="translate(-33.98 -52.2)"/><path class="cls-1" d="M766.43,149.16c1-1.56,3.16-3.94,2.75-4.52-2.58-3.7,1.33-5.68,1.74-8.48a1.68,1.68,0,0,0-1.34-2.11c-2.57-.38-2.43-2.39-2.73-4.18,3.52-2.88,7.81-4.33,11.83-6.25,1.59-.76,3.39,0,3.11,2.07-.66,5.07.63,10.07.14,15.11-.29,2.93-5.47,8.29-8.2,7.73S768.85,148.9,766.43,149.16Z" transform="translate(-33.98 -52.2)"/><path class="cls-4" d="M740.08,422.51c.25-3.43.1-6.58-2-9.77-1-1.58-3.66-4.58.1-6.73a2.43,2.43,0,0,0-.36-1.1c-2,.08-4.07-2.29-5.61-.75-5.4,5.4-4.3,1-4.7-2.64-.38-3.45-.4-5.17,3.86-3.7,4.71,1.63,5.69-1.87,6.12-5.37.14-1.14,0-2.51,1.26-2.57s1.11,1.53,1.43,2.48c2.63,7.74,3.1,15.95,5.32,23.78a9.25,9.25,0,0,1,.32,1.36c.22,1.81,2.86,3.38,1.89,4.73-1.44,2-4.21,2.43-6.8,2.22C741,423.65,740.92,422.9,740.08,422.51Z" transform="translate(-33.98 -52.2)"/><path class="cls-1" d="M195.75,441.37c5,1.73,9.79,4.14,15,5.41,1.21.3,2.79.63,3.29,2.25-1.82.37-1.24,2.71-2.83,3.37-2.83,1.18-5.61,2.5-8.41,3.77-.26-.51-.54-1.19-1.2-.53s-.18,1,.48,1.18c-5.33-.82-9.09-3.24-9.31-9.23A11.33,11.33,0,0,0,195.75,441.37Z" transform="translate(-33.98 -52.2)"/><path class="cls-4" d="M600.29,283.42a9.92,9.92,0,0,1-4.47,4.43c-1.71.89-3.23.13-4.45-1.38-1.35-1.67-3-3.09-4.28-4.8-.87-1.18-1.84-2.54-.87-4.25,2.22-3.92,5.5-6.91,8.62-10.05,1.24-1.25,1.72-.37,2,.68C598.27,273.06,598.05,278.43,600.29,283.42Z" transform="translate(-33.98 -52.2)"/><path class="cls-4" d="M857.18,313.7c14.6-5.11,29.13-10.42,44.93-11.58-2.89,7-6.64,8.65-16.14,8.11-6.08-.35-12.23-.58-18.13,1.61C864.45,313.09,861.1,314.55,857.18,313.7Z" transform="translate(-33.98 -52.2)"/><path class="cls-4" d="M282.78,228.3c-.75,1-1.09,1.47-1.5,1.91-.75.78-1.59,1.49-2.31,2.29a4.66,4.66,0,0,1-6.66.45c-5-3.86-8.66-9.22-14-12.77-.61-.41-1.24-1.12-.77-2s1.34-.57,2.06-.46c3.33.51,6.61.78,9.46,3.18a21.62,21.62,0,0,0,9.12,4.34C280.19,225.74,281,227.44,282.78,228.3Z" transform="translate(-33.98 -52.2)"/><path class="cls-4" d="M802.85,143.09c3.09,4.48,2.19,9.54,3.55,14,1.27,4.2,1.12,8.82,2,13.17.49,2.51-.25,2.82-2.3,2.2a13.2,13.2,0,0,0-2.67-.81c-4.3-.37-5.17-2.54-4.2-6.54a39.52,39.52,0,0,0,.79-9.55C800,151.33,800.31,147.25,802.85,143.09Z" transform="translate(-33.98 -52.2)"/><path class="cls-1" d="M419.62,193.5c-1.19,1.39-1.54,3.5-3.86,4.07.13-3.3-4.59-3.76-4.53-7.32a2.66,2.66,0,0,0-1.08-3.63c-3.54-2.41-1.28-4.13.34-6.29.9-1.2,3-1.06,3-3.45,0-1.14,2.56-1.1,3.92-.85,1.55.29,2.07,1.73,2.08,3.24Q419.59,186.38,419.62,193.5Z" transform="translate(-33.98 -52.2)"/><path class="cls-4" d="M479.36,279.86c1.16-11.91-2.76-25.15,9.63-34.12,1.43,1.7,2,3.85-.76,5.15-4.65,2.2-5.39,4.38-2.76,9.29C489.67,268,485,274.3,479.36,279.86Z" transform="translate(-33.98 -52.2)"/><path class="cls-4" d="M626.7,390.64c-1.85-1.55-2.44-3.18-.38-5s2.1-4.58,5-6c1.93-.95,3.86-3.78,5.76-4.18,2.71-.57,2.48,3.63,4.41,5.09,4.38,3.32-.13,4.17-1.77,5.16-3.39,2-7.24,3.33-9.29,7.08C628.58,393.06,628.34,390.63,626.7,390.64Z" transform="translate(-33.98 -52.2)"/><path class="cls-4" d="M797.58,395.16c14.49-6.23,28.58-13.53,43.71-18.32,1.61-.51,3.77-3.29,4.61-1.42,1.17,2.62-2.7,2.23-4,3a172.88,172.88,0,0,1-40.65,16.87,4.64,4.64,0,0,1-3.18.07,1.74,1.74,0,0,0-.45-.11C797.58,395.36,797.57,395.48,797.58,395.16Z" transform="translate(-33.98 -52.2)"/><path class="cls-1" d="M629.39,98a110.28,110.28,0,0,1,8.33,17.63c-3.46,1.23-7,2.38-9,5.86a1.83,1.83,0,0,1-2.34,1,1.75,1.75,0,0,1-.46-1.62C628.67,113.69,626.73,105.84,629.39,98Z" transform="translate(-33.98 -52.2)"/><path class="cls-4" d="M336.2,229.53c1.26,7.61-1.5,14.24-4.84,20.64-1.16,2.21-4.13,2.11-6.24,3.13-1.44.69-1.3-.77-1.29-1.4.08-3.27.34-7.13,2.45-9.17,3.37-3.25,5.12-7.21,7.32-11A3.4,3.4,0,0,1,336.2,229.53Z" transform="translate(-33.98 -52.2)"/><path class="cls-4" d="M922.92,243.61v.09c-4.33,3.16-8.4,6.93-14.28,6.76a2.33,2.33,0,0,0-2.07.63c-5.45,6.64-13.78,7-21,9.76a62.48,62.48,0,0,1-12.23,3.59c4.42-2,9-3.78,13.22-6.09,6.81-3.69,14.18-6.08,21.2-9.25,3.27-1.47,7.06-2.58,10.31-4.23C919.77,244,921.43,244.42,922.92,243.61Z" transform="translate(-33.98 -52.2)"/><path class="cls-1" d="M191.54,167.28c6.37,3.62,10,8.42,14.25,12.38a41.52,41.52,0,0,0,5,4.13c1.1.74,1.94,1.88.63,3-1,.84-1.5,2.16-3.69,1C199.7,183.44,195.18,176.6,191.54,167.28Z" transform="translate(-33.98 -52.2)"/><path class="cls-4" d="M617.77,365.71c-1.88-4.23-2.78-7.83.37-11.52,1.76-2.07,3-4.6,4.49-6.87.46-.69.65-2,1.85-1.62.58.2,1.06,1,1.35,1.69,3,6.65,2.61,8.11-2.93,13.13C621.2,362.05,619.67,363.77,617.77,365.71Z" transform="translate(-33.98 -52.2)"/><path class="cls-1" d="M259.91,405.93c-3.52-2.66-4.2-7.53-8.4-10.06-1.54-.93-4.72-3.9-4-7.47,5.17,3.54,12,4.63,15.61,10.45C264.75,401.46,263.12,405.13,259.91,405.93Z" transform="translate(-33.98 -52.2)"/><path class="cls-4" d="M729.1,197.77c7.19-6.14,13.63-11.59,20.65-16.26,2.94-2,5-5,8.38-6.35.74-.31,1.21-1.7,2.24-.62a2.32,2.32,0,0,1,.62,1.7c-.23,1.27-1.46.75-2.28,1-1,.29-2.27,0-2.85,1.19-3.83,8.06-12.12,10.48-18.86,14.82C734.76,194.69,733.08,197.13,729.1,197.77Z" transform="translate(-33.98 -52.2)"/><path class="cls-4" d="M164.77,211c-3.54-4.26-5.69-9-9.33-12.65-.69-.69-2.44-2.75-.7-4,1-.7,2.7,0,3.45,1.56a2.19,2.19,0,0,0,1,.9c2.3,1.09,6.31,1.81,6.59,3.26C166.44,203.42,165.26,207.09,164.77,211Z" transform="translate(-33.98 -52.2)"/><path class="cls-4" d="M286.64,303.59c-8-5.69-14.51-11.08-18.32-19C275.71,289.09,284.19,292.61,286.64,303.59Z" transform="translate(-33.98 -52.2)"/><path class="cls-4" d="M624.54,587.53c-.21,4.1-.44,8.16-3.81,11.24a3.5,3.5,0,0,0-.75,2.56c.7,7.74-2.55,14.56-4.79,21.64a11.21,11.21,0,0,1-2.86,4.79c2.38-9.75,4.78-19.36,7.07-29,.79-3.3,2.83-6.22,2.8-9.79,0-1.38,1.16-1.68,2.4-1.38Z" transform="translate(-33.98 -52.2)"/><path class="cls-4" d="M471.56,147.74c2.62,5.26-.88,8.65-3.29,11.53-4.59,5.46-7.62,11.84-12,17.43A227.36,227.36,0,0,1,471.56,147.74Z" transform="translate(-33.98 -52.2)"/><path class="cls-3" d="M477.09,846c6.21,4.09,13.36,4.24,20.38,4.87-4.71,2.73-9.71,2.29-15,2.26C476.5,853.08,476.42,850.24,477.09,846Z" transform="translate(-33.98 -52.2)"/><path class="cls-4" d="M671.35,106.8c.9,5.77,2.07,10.27,4.2,14.41,2.55,5,3.46,10.5,5.64,15.58.28.66.23,1.35-.45,1.5a2,2,0,0,1-1.59-.59,5.37,5.37,0,0,1-1.27-2.44c-1-7.88-4.36-15.06-6.58-22.58A7.34,7.34,0,0,1,671.35,106.8Z" transform="translate(-33.98 -52.2)"/><path class="cls-3" d="M912.82,281.12c.16-3.74-.72-7.76,3.5-10.19,1.17-.67.68-2.27.66-3.49,2-2.3,5.08-2.63,7.69-4.15C921.73,269.9,917.44,275.61,912.82,281.12Z" transform="translate(-33.98 -52.2)"/><path class="cls-3" d="M740.08,422.51c.84.39.93,1.14.88,1.94-4.46,2.72-5.5,4.37-7.09,9.55-.52,1.71-.1,4.27-2.9,4.55,1.16-2.28.77-4.62-.62-6.86-1.21-1.94-1.73-3.53,1.4-4.19,2-.41,4.06-1.61,4.62-3.4C737.14,421.6,739,423.21,740.08,422.51Z" transform="translate(-33.98 -52.2)"/><path class="cls-1" d="M627.08,640.13a2.29,2.29,0,0,1,.59,2.59c-2.67,5.57-3.78,11.78-7,17.12A2.5,2.5,0,0,1,618,661.2c-.13-6.12,4.14-10.64,5.93-16.07C624.53,643.31,626,641.79,627.08,640.13Z" transform="translate(-33.98 -52.2)"/><path class="cls-3" d="M324.67,122c1.74,2.85,5.28,3.43,6.92,6.07.47.75,1.73,1.42,1.29,2.25-1.08,2.08-.13,5.63-3.08,6.09-1.29.21-1.71-2.85-2.29-4.46C326.34,128.68,325.59,125.3,324.67,122Z" transform="translate(-33.98 -52.2)"/><path class="cls-3" d="M547.4,378.68c.55-3.84-.71-6.82,0-9.86.24-1.06.11-2.32,1.16-2.89,1.35-.74,2,.54,2.47,1.39,1,1.78,4.47,1.69,3.89,4.1-.48,2-2.71,3.23-4.63,4.36C549.33,376.34,548.65,377.4,547.4,378.68Z" transform="translate(-33.98 -52.2)"/><path class="cls-1" d="M164,406.1c7.79,1.24,9.5,3.47,8.22,10.71C166.9,415.25,166.71,409.72,164,406.1Z" transform="translate(-33.98 -52.2)"/><path class="cls-3" d="M572.76,855.75l17.48.36c1,1.3,2.29,2.55.54,4.2-1.61-2.17-5.37,3.42-6.22-1.75-.33-2-2.06-.49-3.06-.92C578.71,856.44,575,859.51,572.76,855.75Z" transform="translate(-33.98 -52.2)"/><path class="cls-4" d="M507.68,366c-1.69,2.54-3.46,5.13-6.29,6.34-1.84.78-1.59-1.26-1.12-2a44.3,44.3,0,0,0,2.9-6.21c.38-.83.92-2.34,2.3-1.63S507.22,364.6,507.68,366Z" transform="translate(-33.98 -52.2)"/><path class="cls-4" d="M326.71,410.41c4,2.17,4.85,8.17,1.72,11.21a2.13,2.13,0,0,1-1.7.34c-1-.23-1.8-1.35-1.53-2C326.37,416.88,324.51,413.46,326.71,410.41Z" transform="translate(-33.98 -52.2)"/><path class="cls-1" d="M886,225.92c.59,3.77-3.93,6.46-2,10.7-1.83-1.09-4-1.24-4.76-3.31C878.62,228.18,881.82,226.58,886,225.92Z" transform="translate(-33.98 -52.2)"/><path class="cls-4" d="M286.63,431.55c-1.28,0-2.23,0-2.36-1q-.74-5.46-1.22-10.95c0-.27.88-.79,1.42-.91.71-.16,1,.4,1.21,1.07.77,3.2,1.48,6.42,2.35,9.59C288.53,431.24,287.43,431.42,286.63,431.55Z" transform="translate(-33.98 -52.2)"/><path class="cls-4" d="M195.75,441.37a11.33,11.33,0,0,1-3,6.22l-7.5-8.75C189.72,438.31,192.4,441.09,195.75,441.37Z" transform="translate(-33.98 -52.2)"/><path class="cls-3" d="M578.21,521.63c2.41-.61,2.16-2.64,2.3-4.41.19-2.41.27-4.85,2.24-6.65-.61,7.27-2.71,14.24-4.16,21.35-.08-.09-.15-.25-.23-.25a3.26,3.26,0,0,0-.61.11C577.82,528.39,577.08,525,578.21,521.63Z" transform="translate(-33.98 -52.2)"/><path class="cls-3" d="M468.91,91c-.19,5.27-.43,9.79.67,15.1C463.06,97.59,463.06,97.59,468.91,91Z" transform="translate(-33.98 -52.2)"/><path class="cls-4" d="M662.91,362.31c-1.38,4.89-3.88,7.84-5.81,11.08-.47.8-1.19,1.63-2.2.88s-1.71-1.92-1-2.81A45.93,45.93,0,0,1,662.91,362.31Z" transform="translate(-33.98 -52.2)"/><path class="cls-4" d="M260,414.25c.46,0,.92.07,1.37.05,1.46-.09,4.08-.56,4.17-.27a28.94,28.94,0,0,1,.83,6.25c.09,1.52-1.09,1.32-1.89.94-1.31-.62-4-.12-3.19-2.76C261.91,416.53,261.09,415.67,260,414.25Z" transform="translate(-33.98 -52.2)"/><path class="cls-4" d="M212.16,240.68c1.55,6.35-1.28,12.33-1.68,18.53A58.57,58.57,0,0,1,212.16,240.68Z" transform="translate(-33.98 -52.2)"/><path class="cls-4" d="M565.32,360.5c-1.31-1-2.3-2-1.22-3.79,1.59-2.58,3.18-5.16,4.71-7.78.37-.63.77-.91,1.45-.64.26.11.68.46.64.55q-2.29,5.71-4.7,11.4C566.13,360.4,565.66,360.4,565.32,360.5Z" transform="translate(-33.98 -52.2)"/><path class="cls-4" d="M771.92,407.26c-2.58,4.37-5.48,6.63-8.12,9.14-.68.64-1.57,1.43-2.33.55-.5-.57-.81-2.08-.44-2.53C763.7,411.25,767.27,409.47,771.92,407.26Z" transform="translate(-33.98 -52.2)"/><path class="cls-3" d="M279.82,463.57l3-1.83c3.91.47,6.3,2.86,8,6.12a11.76,11.76,0,0,0-6.69-1.65C282.16,466.22,280.34,465.94,279.82,463.57Z" transform="translate(-33.98 -52.2)"/><path class="cls-3" d="M461.58,354.45c3.29,3.38.27,6.95.43,10.38a1.25,1.25,0,0,1-2,1c-1-.63-2.08-1.37-1.5-2.94C459.51,360.1,459.92,357.12,461.58,354.45Z" transform="translate(-33.98 -52.2)"/><path class="cls-4" d="M553,329.89a13.93,13.93,0,0,1,1.68,1.47c.86,1,3.31.63,2.92,2.39a18,18,0,0,1-2.7,5.3c-.61,1-1.31.33-1.73-.38-.77-1.31-3.22-2.61-1.1-4.18S553,331.69,553,329.89Z" transform="translate(-33.98 -52.2)"/><path class="cls-3" d="M582.8,106.27c1.87,3.69,3.27,7.4,3,11.49a1.93,1.93,0,0,1-1,1.39c-.78.28-1.28-.37-1.74-1-1.51-2.21-2.62-4.38-1.39-7.18A28.73,28.73,0,0,0,582.8,106.27Z" transform="translate(-33.98 -52.2)"/><path class="cls-3" d="M488.71,117.44c3.41,3.46,4.23,10.2,1.37,12.63C492.14,125.45,486.18,122,488.71,117.44Z" transform="translate(-33.98 -52.2)"/><path class="cls-4" d="M510.61,395.52c1.91-.39,2.9,1.55,4,.66,5-3.83,2.83,2.13,4.19,3.17s-1.54.62-1.39,2c.07.72-1.48.46-1.77-.22C514.71,398.78,511.86,398.07,510.61,395.52Z" transform="translate(-33.98 -52.2)"/><path class="cls-3" d="M101.72,299.44c2.13.64,4.16-4.09,6.45.31,1,1.92.11,3-.72,3.41C104,304.71,104,300.34,101.72,299.44Z" transform="translate(-33.98 -52.2)"/><path class="cls-4" d="M360.42,390.51c2.41.18,5.33-.36,5.77,1.21.8,2.89-1.12,5.43-3.82,7.95A16.56,16.56,0,0,0,360.42,390.51Z" transform="translate(-33.98 -52.2)"/><path class="cls-3" d="M626.7,390.64c1.64,0,1.88,2.42,3.69,2.14,2.7,2.28,1.65,5.29,1.22,8.31C631.48,396.81,625.36,395.64,626.7,390.64Z" transform="translate(-33.98 -52.2)"/><path class="cls-4" d="M138,349c2.4.61,3.89.92,5.33,1.4.95.31,2.59.42,2.18,1.82a6,6,0,0,1-2.43,2.68c-1.3.92-2-.33-2.51-1.21C139.76,352.37,139.09,351,138,349Z" transform="translate(-33.98 -52.2)"/><path class="cls-3" d="M421.63,358.67c-1.92-1.17-2.78-3.14-.89-5.64.52-.7,1-1.31,1.79-.54C425.19,355.12,422.21,357.06,421.63,358.67Z" transform="translate(-33.98 -52.2)"/><path class="cls-4" d="M367.4,416.25c-1.14-2.32-2.29-3.87-4.39-4.8-1.07-.47-2.12-2.24-.67-3.44,1.18-1,2.55.23,3,1.21C366.21,411.31,369.09,412.74,367.4,416.25Z" transform="translate(-33.98 -52.2)"/><path class="cls-3" d="M278.65,169.67c-2.45-1.19-5.6,1-6.37-2.63-.3-1.4,1-3.89,1.91-3.74C277.07,163.79,277.67,166.57,278.65,169.67Z" transform="translate(-33.98 -52.2)"/><path class="cls-4" d="M577.75,531.78a3.26,3.26,0,0,1,.61-.11c.08,0,.15.16.23.25l-1.35,12.58C577.15,540.24,576.76,536,577.75,531.78Z" transform="translate(-33.98 -52.2)"/><path class="cls-3" d="M681.46,433.17c-1.4-.15-2.28.77-3.47,1.94-.38-3,.66-5.26,1.76-7.51C679.8,429.62,683.14,430.62,681.46,433.17Z" transform="translate(-33.98 -52.2)"/><path class="cls-3" d="M932.3,244.82l1.49,0c-.45,3.09-1.78,5.12-6.3,4.54A11.87,11.87,0,0,0,932.3,244.82Z" transform="translate(-33.98 -52.2)"/><path class="cls-4" d="M448.27,520.09l1.56.17c1.19,2,1.26,4.18,1.93,7.6C449.09,524.93,448.77,522.47,448.27,520.09Z" transform="translate(-33.98 -52.2)"/><path class="cls-4" d="M657.24,532.49l1.35.09c-.24,1.9-1.31,3.38-2.8,5.25C656.53,535.76,655.31,533.75,657.24,532.49Z" transform="translate(-33.98 -52.2)"/><path class="cls-3" d="M563.5,855.3l7.07.37C568.14,856.83,565.81,856.2,563.5,855.3Z" transform="translate(-33.98 -52.2)"/><path class="cls-4" d="M724.8,315.88c-.38,1-.56,2.16-1.93,2.17-.29,0-.87-.61-.81-.79.44-1.41,1.52-1.63,2.82-1.31Z" transform="translate(-33.98 -52.2)"/><path class="cls-4" d="M724.88,316c-.41-1.5.31-2.32,1.7-2.59a.63.63,0,0,1,.75.83c-.4,1.18-1.56,1.32-2.53,1.69Z" transform="translate(-33.98 -52.2)"/><path class="cls-4" d="M728.61,199.18c-.29.29-.55.78-.89.85-.61.12-.69-.49-.49-.85s.64-.56,1-.83Z" transform="translate(-33.98 -52.2)"/><path class="cls-4" d="M519.43,403.11l0-.39.61.23c-.07.11-.12.31-.21.32S519.55,403.17,519.43,403.11Z" transform="translate(-33.98 -52.2)"/><path class="cls-3" d="M633.34,407.35c-.53-.76-2-1.54-.69-2.43.65-.44,1.33.81,1.41,1.76Z" transform="translate(-33.98 -52.2)"/><path class="cls-4" d="M654.48,346c-.89.49-1.21.81-1.51.79a4,4,0,0,1-1.2-.47c.12-.21.24-.61.36-.61A22.26,22.26,0,0,1,654.48,346Z" transform="translate(-33.98 -52.2)"/><path class="cls-4" d="M405.58,190.23c-.42-.2-1.36-.1-1-.81.25-.48,1-.1,1.44.36Z" transform="translate(-33.98 -52.2)"/><path class="cls-3" d="M453.5,404.6c-.57-.38-1.8-.61-1-1.5.62-.71,1.32.07,1.68.8Z" transform="translate(-33.98 -52.2)"/><path class="cls-4" d="M912.17,229l-.21.62-.71-.7-.06.08h1Z" transform="translate(-33.98 -52.2)"/><path class="cls-4" d="M502.52,410.71l-.53-.25c.1,0,.24-.07.28,0a1.82,1.82,0,0,1,.18.37Z" transform="translate(-33.98 -52.2)"/><path class="cls-1" d="M449.24,797.42c.06.36.25,1,.17,1-.58.26-.64-.15-.61-.6Z" transform="translate(-33.98 -52.2)"/><path class="cls-4" d="M624.6,587.59v-.43c0,.12-.05.24-.07.36Z" transform="translate(-33.98 -52.2)"/><path class="cls-1" d="M809.64,103.41l1,.61-.46.46c-.17-.37-.35-.73-.53-1.1Z" transform="translate(-33.98 -52.2)"/><path class="cls-4" d="M766.74,368.28c0-.3-1-.66,0-.9l-.07-.07-.05,1Z" transform="translate(-33.98 -52.2)"/><path class="cls-3" d="M367.3,433.77l-.31.32a2.72,2.72,0,0,1-.26-.58c0-.06.19-.17.29-.26Z" transform="translate(-33.98 -52.2)"/><path class="cls-4" d="M803.67,141.74c-.06-.11-.19-.22-.17-.31s.17-.15.26-.23c.06.1.19.22.17.3S803.76,141.66,803.67,141.74Z" transform="translate(-33.98 -52.2)"/><path class="cls-1" d="M418,405.21l-.28-.16.32-.41.27.3Z" transform="translate(-33.98 -52.2)"/><path class="cls-4" d="M397.1,195.33l-.66-.25c.64-.68.48.06.58.33Z" transform="translate(-33.98 -52.2)"/><path class="cls-4" d="M163.92,359l-.27-.27c.1-.07.21-.2.31-.19s.19.16.28.25Z" transform="translate(-33.98 -52.2)"/><path class="cls-2" d="M912.16,229h-1C911.51,227.72,911.83,228.52,912.16,229Z" transform="translate(-33.98 -52.2)"/><path class="cls-2" d="M766.67,368.31c0-.33,0-.67.05-1l.86.67Z" transform="translate(-33.98 -52.2)"/><path class="cls-2" d="M202.07,456.82c-.66-.19-1.07-.59-.48-1.18s.94,0,1.2.53Z" transform="translate(-33.98 -52.2)"/></svg>